SplineFontDB: 3.2
FontName: cerex
FullName: cerex
FamilyName: cerex
Weight: Regular
Copyright: GPL\nThis font is the X version(EM W:H=1:2) of cerez
UComments: "This font is the X version(EM W:H+AD0A-1:2) of cerez"
Version: 20210719
ItalicAngle: 0
UnderlinePosition: -610
UnderlineWidth: 91
Ascent: 1903
Descent: 701
InvalidEm: 0
sfntRevision: 0x00010000
LayerCount: 2
Layer: 0 1 "Back" 1
Layer: 1 1 "Fore" 0
XUID: [1021 419 447965435 4292642]
StyleMap: 0x0040
FSType: 0
OS2Version: 0
OS2_WeightWidthSlopeOnly: 0
OS2_UseTypoMetrics: 0
CreationTime: 1431127310
ModificationTime: 1626659846
PfmFamily: 49
TTFWeight: 400
TTFWidth: 5
LineGap: 0
VLineGap: 0
Panose: 2 0 5 9 6 0 0 8 0 4
OS2TypoAscent: 1903
OS2TypoAOffset: 0
OS2TypoDescent: -701
OS2TypoDOffset: 0
OS2TypoLinegap: 0
OS2WinAscent: 1903
OS2WinAOffset: 0
OS2WinDescent: 701
OS2WinDOffset: 0
HheadAscent: 1903
HheadAOffset: 0
HheadDescent: -701
HheadDOffset: 0
OS2CapHeight: 1618
OS2XHeight: 1079
OS2Vendor: 'crz '
OS2CodePages: 00000004.00000000
OS2UnicodeRanges: 00000000.00000004.00000000.00000000
MarkAttachClasses: 1
DEI: 91125
TtTable: prep
PUSHW_1
 511
SCANCTRL
PUSHB_1
 1
SCANTYPE
SVTCA[y-axis]
MPPEM
PUSHB_1
 8
LT
IF
PUSHB_2
 1
 1
INSTCTRL
EIF
PUSHB_2
 70
 6
CALL
IF
POP
PUSHB_1
 16
EIF
MPPEM
PUSHB_1
 20
GT
IF
POP
PUSHB_1
 128
EIF
SCVTCI
PUSHB_1
 6
CALL
NOT
IF
EIF
PUSHB_1
 20
CALL
EndTTInstrs
TtTable: fpgm
PUSHB_1
 0
FDEF
PUSHB_1
 0
SZP0
MPPEM
PUSHB_1
 42
LT
IF
PUSHB_1
 74
SROUND
EIF
PUSHB_1
 0
SWAP
MIAP[rnd]
RTG
PUSHB_1
 6
CALL
IF
RTDG
EIF
MPPEM
PUSHB_1
 42
LT
IF
RDTG
EIF
DUP
MDRP[rp0,rnd,grey]
PUSHB_1
 1
SZP0
MDAP[no-rnd]
RTG
ENDF
PUSHB_1
 1
FDEF
DUP
MDRP[rp0,min,white]
PUSHB_1
 12
CALL
ENDF
PUSHB_1
 2
FDEF
MPPEM
GT
IF
RCVT
SWAP
EIF
POP
ENDF
PUSHB_1
 3
FDEF
ROUND[Black]
RTG
DUP
PUSHB_1
 64
LT
IF
POP
PUSHB_1
 64
EIF
ENDF
PUSHB_1
 4
FDEF
PUSHB_1
 6
CALL
IF
POP
SWAP
POP
ROFF
IF
MDRP[rp0,min,rnd,black]
ELSE
MDRP[min,rnd,black]
EIF
ELSE
MPPEM
GT
IF
IF
MIRP[rp0,min,rnd,black]
ELSE
MIRP[min,rnd,black]
EIF
ELSE
SWAP
POP

StartChar: exclam
Encoding: 1 33 1
Width: 1302
VWidth: 1667
GlyphClass: 2
Flags: W
HStem: 0 312<524.859 777.141> 1598 20G<505 797>
VStem: 495 312<29.8594 282.141 923.579 1618>
LayerCount: 2
Fore
SplineSet
807 156 m 128,-1,1
 807 0 807 0 651 0 c 128,-1,2
 495 0 495 0 495 156 c 128,-1,3
 495 312 495 312 651 312 c 128,-1,0
 807 312 807 312 807 156 c 128,-1,1
547 494 m 1,4,-1
 506 1121 l 1,5,-1
 505 1618 l 1,6,-1
 797 1618 l 1,7,-1
 797 1121 l 1,8,-1
 755 494 l 1,9,-1
 547 494 l 1,4,-1
EndSplineSet
Validated: 1
EndChar

StartChar: quotedbl
Encoding: 2 34 2
Width: 1302
VWidth: 1667
GlyphClass: 2
Flags: W
HStem: 1079 539<437 567 735 865>
VStem: 359 208<1361.06 1618> 437 130<1079 1153.94> 735 208<1361.06 1618> 735 130<1079 1153.94>
LayerCount: 2
Fore
SplineSet
567 1079 m 1,0,-1
 437 1079 l 1,1,-1
 359 1436 l 1,2,-1
 359 1618 l 1,3,-1
 567 1618 l 1,4,-1
 567 1436 l 1,5,-1
 567 1079 l 1,0,-1
735 1079 m 1,6,-1
 735 1436 l 1,7,-1
 735 1618 l 1,8,-1
 943 1618 l 1,9,-1
 943 1436 l 1,10,-1
 865 1079 l 1,11,-1
 735 1079 l 1,6,-1
EndSplineSet
Validated: 1
EndChar

StartChar: numbersign
Encoding: 3 35 3
Width: 1302
VWidth: 1911
GlyphClass: 2
Flags: W
HStem: 517 188<151 359 567 735 943 1151> 913 188<151 359 567 735 943 1151>
VStem: 359 208<309 517 705 913 1101 1309> 735 208<309 517 705 913 1101 1309>
LayerCount: 2
Fore
SplineSet
567 309 m 1,0,-1
 359 309 l 1,1,-1
 359 517 l 1,2,-1
 151 517 l 1,3,-1
 151 705 l 1,4,-1
 359 705 l 1,5,-1
 359 913 l 1,6,-1
 151 913 l 1,7,-1
 151 1101 l 1,8,-1
 359 1101 l 1,9,-1
 359 1309 l 1,10,-1
 567 1309 l 1,11,-1
 567 1101 l 1,12,-1
 735 1101 l 1,13,-1
 735 1309 l 1,14,-1
 943 1309 l 1,15,-1
 943 1101 l 1,16,-1
 1151 1101 l 1,17,-1
 1151 913 l 1,18,-1
 943 913 l 1,19,-1
 943 705 l 1,20,-1
 1151 705 l 1,21,-1
 1151 517 l 1,22,-1
 943 517 l 1,23,-1
 943 309 l 1,24,-1
 735 309 l 1,25,-1
 735 517 l 1,26,-1
 567 517 l 1,27,-1
 567 309 l 1,0,-1
735 705 m 1,28,-1
 735 913 l 1,29,-1
 567 913 l 1,30,-1
 567 705 l 1,31,-1
 735 705 l 1,28,-1
EndSplineSet
Validated: 1
EndChar

StartChar: dollar
Encoding: 4 36 4
Width: 1302
VWidth: 1667
GlyphClass: 2
Flags: W
HStem: 0 182<256 547 755 886.774> 1255 181<422.573 547 755 1021> 1599 20G<547 755>
VStem: 151 208<970.149 1197.8> 547 208<-182 0 189 562 874 1248 1436 1618> 943 208<236.945 472.659>
CounterMasks: 1 1c
LayerCount: 2
Back
SplineSet
151 0 m 25,0,-1
 1151 1646 l 1049
EndSplineSet
Fore
SplineSet
755 562 m 1,0,-1
 755 189 l 1,1,2
 943 206 943 206 943 353 c 0,3,4
 943 480 943 480 755 562 c 1,0,-1
547 182 m 1,5,-1
 547 659 l 1,6,7
 151 833 151 833 151 1084 c 0,8,9
 151 1392 151 1392 547 1432 c 1,10,-1
 547 1618 l 1,11,-1
 755 1619 l 1,12,-1
 755 1436 l 1,13,-1
 1021 1436 l 1,14,-1
 1021 1255 l 1,15,-1
 755 1255 l 1,16,-1
 755 778 l 1,17,18
 1151 603 1151 603 1151 353 c 0,19,20
 1150 42 1150 42 755 4 c 1,21,-1
 755 -182 l 1,22,-1
 547 -182 l 1,23,-1
 547 0 l 1,24,-1
 256 0 l 1,25,-1
 151 182 l 1,26,-1
 547 182 l 1,5,-1
547 874 m 1,27,-1
 547 1248 l 1,28,29
 359 1224 359 1224 359 1084 c 0,30,31
 359 967 359 967 547 874 c 1,27,-1
EndSplineSet
Validated: 1
EndChar

StartChar: percent
Encoding: 5 37 5
Width: 1302
VWidth: 1667
GlyphClass: 2
Flags: W
HStem: 110 157<781.672 1006.33> 582 141<786.176 1001.82> 895 157<295.672 520.328> 1367 141<300.176 515.824>
VStem: 151 143<1064.97 1355.75> 522 143<1064.97 1355.75> 637 143<279.969 570.754> 1008 143<279.969 570.754>
LayerCount: 2
Fore
SplineSet
780 501 m 2,0,-1
 780 332 l 2,1,2
 780 267 780 267 894 267 c 128,-1,3
 1008 267 1008 267 1008 332 c 2,4,-1
 1008 501 l 2,5,6
 1008 582 1008 582 894 582 c 128,-1,7
 780 582 780 582 780 501 c 2,0,-1
637 501 m 2,8,9
 637 723 637 723 894 723 c 128,-1,10
 1151 723 1151 723 1151 501 c 2,11,-1
 1151 332 l 2,12,13
 1151 110 1151 110 894 110 c 128,-1,14
 637 110 637 110 637 332 c 2,15,-1
 637 501 l 2,8,9
294 1286 m 2,16,-1
 294 1117 l 2,17,18
 294 1052 294 1052 408 1052 c 128,-1,19
 522 1052 522 1052 522 1117 c 2,20,-1
 522 1286 l 2,21,22
 522 1367 522 1367 408 1367 c 128,-1,23
 294 1367 294 1367 294 1286 c 2,16,-1
151 1286 m 2,24,25
 151 1508 151 1508 408 1508 c 128,-1,26
 665 1508 665 1508 665 1286 c 2,27,-1
 665 1117 l 2,28,29
 665 895 665 895 408 895 c 128,-1,30
 151 895 151 895 151 1117 c 2,31,-1
 151 1286 l 2,24,25
76 420 m 1,32,-1
 1131 1341 l 1,33,-1
 1226 1198 l 1,34,-1
 171 277 l 1,35,-1
 76 420 l 1,32,-1
EndSplineSet
Validated: 1
EndChar

StartChar: ampersand
Encoding: 6 38 6
Width: 1302
VWidth: 1667
GlyphClass: 2
Flags: W
HStem: 0 208<386.57 710.458> 1410 208<413.864 610.844>
VStem: 127 189<275.449 605.518> 204 189<1116.97 1388.57> 632 196<1136.09 1396.81> 922 180<531.283 834>
LayerCount: 2
Back
SplineSet
1151 1214 m 5,0,-1
 -149 1326 l 1029
437 321 m 1,2,-1
 549 1621 l 1025
-2788 3320 m 0,0,1
 -2788 3446 -2788 3446 -2950 3446 c 128,-1,2
 -3112 3446 -3112 3446 -3112 3320 c 0,3,4
 -3112 3228 -3112 3228 -3060 3166 c 2,5,-1
 -3016 3113 l 1,6,7
 -2998 3119 -2998 3119 -2978 3124 c 0,8,9
 -2788 3175 -2788 3175 -2788 3320 c 0,0,1
-3063 2860 m 1,10,11
 -3119 2804 -3119 2804 -3120 2734 c 1,12,-1
 -3120 2516 l 2,13,14
 -3120 2224 -3120 2224 -2828 2224 c 0,15,16
 -2686 2224 -2686 2224 -2613 2293 c 1,17,-1
 -3063 2860 l 1,10,11
-2475 2121 m 1,18,19
 -2599 2016 -2599 2016 -2828 2016 c 0,20,21
 -3328 2016 -3328 2016 -3328 2516 c 2,22,-1
 -3328 2825 l 2,23,24
 -3328 2949 -3328 2949 -3201 3032 c 1,25,-1
 -3210 3044 l 1,26,27
 -3294 3150 -3294 3150 -3294 3320 c 0,28,29
 -3294 3633 -3294 3633 -2950 3633 c 128,-1,30
 -2606 3633 -2606 3633 -2606 3320 c 0,31,32
 -2606 3055 -2606 3055 -2854 2973 c 0,33,34
 -2872 2967 -2872 2967 -2889 2961 c 1,35,-1
 -2536 2537 l 1,36,-1
 -2536 2734 l 1,37,-1
 -2328 2643 l 1,38,-1
 -2328 2516 l 2,39,40
 -2328 2404 -2328 2404 -2353 2318 c 1,41,-1
 -2274 2223 l 1,42,-1
 -2392 2016 l 1,43,-1
 -2475 2121 l 1,18,19
-2745 1304 m 0,0,1
 -2745 1430 -2745 1430 -2907 1430 c 128,-1,2
 -3069 1430 -3069 1430 -3069 1304 c 0,3,4
 -3069 1212 -3069 1212 -3017 1150 c 2,5,-1
 -2231 207 l 1,6,-1
 -2349 0 l 1,7,-1
 -3167 1028 l 2,8,9
 -3251 1134 -3251 1134 -3251 1304 c 0,10,11
 -3251 1617 -3251 1617 -2907 1617 c 128,-1,12
 -2563 1617 -2563 1617 -2563 1304 c 0,13,14
 -2563 1039 -2563 1039 -2811 957 c 0,15,16
 -3075 870 -3075 870 -3077 718 c 1,17,-1
 -3077 500 l 0,18,19
 -3077 208 -3077 208 -2785 208 c 128,-1,20
 -2493 208 -2493 208 -2493 500 c 2,21,-1
 -2493 718 l 1,22,-1
 -2285 627 l 1,23,24
 -2285 500 l 2,25,26
 -2285 0 -2285 0 -2785 0 c 128,-1,27
 -3285 0 -3285 0 -3285 500 c 1,28,-1
 -3285 809 l 2,29,30
 -3285 1015 -3285 1015 -2935 1108 c 24,31,32
 -2745 1159 -2745 1159 -2745 1304 c 0,0,1
-1405 936 m 1,0,1
 -1333 860 l 1,2,3
 -1257 872 -1257 872 -1165 873 c 0,4,5
 -873 873 -873 873 -873 1128 c 2,6,-1
 -873 1182 l 2,7,8
 -873 1436 -873 1436 -1165 1436 c 128,-1,9
 -1457 1436 -1457 1436 -1457 1182 c 2,10,-1
 -1457 1128 l 2,11,12
 -1457 988 -1457 988 -1405 936 c 1,0,1
-1172 691 m 1,13,-1
 -839 341 l 1,14,15
 -812 379 -812 379 -812 473 c 0,16,17
 -812 534 -812 534 -826 608 c 1,18,-1
 -618 456 l 1,19,20
 -618 278 -618 278 -683 178 c 1,21,-1
 -514 0 l 1,22,-1
 -792 0 l 1,23,-1
 -840 49 l 1,24,25
 -951 0 -951 0 -1118 0 c 2,26,-1
 -1212 0 l 2,27,28
 -1712 0 -1712 0 -1712 436 c 0,29,30
 -1712 679 -1712 679 -1544 786 c 1,31,-1
 -1551 794 l 1,32,33
 -1665 893 -1665 893 -1665 1128 c 2,34,-1
 -1665 1182 l 2,35,36
 -1665 1618 -1665 1618 -1165 1618 c 128,-1,37
 -665 1618 -665 1618 -665 1182 c 2,38,-1
 -665 1128 l 2,39,40
 -665 691 -665 691 -1118 691 c 2,41,-1
 -1172 691 l 1,13,-1
-1408 645 m 1,42,43
 -1504 583 -1504 583 -1504 436 c 0,44,45
 -1503 182 -1503 182 -1212 182 c 1,46,-1
 -1118 182 l 2,47,48
 -1041 182 -1041 182 -984 199 c 1,49,-1
 -1408 645 l 1,42,43
EndSplineSet
Fore
SplineSet
881 527 m 1,0,1
 922 664 922 664 922 809 c 2,2,-1
 922 834 l 1,3,-1
 1102 834 l 1,4,-1
 1102 809 l 2,5,6
 1102 551 1102 551 1016 353 c 1,7,-1
 1152 167 l 1,8,-1
 1036 0 l 1,9,-1
 903 174 l 1,10,11
 758 0 758 0 556 0 c 0,12,13
 127 2 127 2 127 433 c 0,14,15
 127 561 127 561 175 662 c 0,16,17
 228 773 228 773 355 895 c 1,18,-1
 335 923 l 2,19,20
 280 1000 280 1000 253 1051 c 0,21,22
 204 1142 204 1142 204 1296 c 0,23,24
 204 1618 204 1618 550 1618 c 0,25,26
 828 1618 828 1618 828 1241 c 0,27,28
 828 1102 828 1102 615 882 c 1,29,-1
 881 527 l 1,0,1
316 433 m 0,30,31
 316 208 316 208 558 208 c 0,32,33
 688 208 688 208 783 332 c 1,34,-1
 475 742 l 1,35,36
 316 583 316 583 316 433 c 0,30,31
532 1410 m 0,37,38
 393 1410 393 1410 393 1279 c 0,39,40
 393 1175 393 1175 497 1038 c 1,41,42
 632 1174 632 1174 632 1258 c 0,43,44
 632 1410 632 1410 532 1410 c 0,37,38
EndSplineSet
Validated: 1
EndChar

StartChar: quotesingle
Encoding: 7 39 7
Width: 1302
VWidth: 1667
GlyphClass: 2
Flags: W
HStem: 1079 539<587 715>
VStem: 527 248<1338.58 1618> 587 128<1079 1176.42>
LayerCount: 2
Fore
SplineSet
587 1079 m 1,0,-1
 527 1436 l 1,1,-1
 527 1618 l 1,2,-1
 775 1618 l 1,3,-1
 775 1436 l 1,4,-1
 715 1079 l 1,5,-1
 587 1079 l 1,0,-1
EndSplineSet
Validated: 1
EndChar

StartChar: parenleft
Encoding: 8 40 8
Width: 1302
VWidth: 1667
GlyphClass: 2
Flags: W
HStem: -357 182<902.146 1151> 1436 182<902.146 1151>
VStem: 359 208<243.422 1017.58>
LayerCount: 2
Fore
SplineSet
359 630.5 m 128,-1,1
 359 1618 359 1618 1151 1618 c 1,2,-1
 1151 1436 l 1,3,4
 567 1436 567 1436 567 630.5 c 128,-1,5
 567 -175 567 -175 1151 -175 c 1,6,-1
 1151 -357 l 1,7,0
 359 -357 359 -357 359 630.5 c 128,-1,1
EndSplineSet
Validated: 1
EndChar

StartChar: parenright
Encoding: 9 41 9
Width: 1302
VWidth: 1667
GlyphClass: 2
Flags: W
HStem: -357 181<151 399.854> 1436 182<151 399.854>
VStem: 735 208<243.07 1017.3>
LayerCount: 2
Fore
SplineSet
943 630 m 0,0,1
 943 -356 943 -356 151 -357 c 1,2,-1
 151 -176 l 1,3,4
 735 -176 735 -176 735 630 c 128,-1,5
 735 1436 735 1436 151 1436 c 1,6,-1
 151 1618 l 1,7,8
 943 1618 943 1618 943 630 c 0,0,1
EndSplineSet
Validated: 1
EndChar

StartChar: asterisk
Encoding: 10 42 10
Width: 1302
VWidth: 1911
GlyphClass: 2
Flags: W
HStem: 705 208<151 471 831 1151>
LayerCount: 2
Fore
SplineSet
151 705 m 1,0,-1
 151 913 l 1,1,-1
 471 913 l 1,2,-1
 311 1190 l 1,3,-1
 491 1294 l 1,4,-1
 651 1017 l 1,5,-1
 811 1294 l 1,6,-1
 991 1190 l 1,7,-1
 831 913 l 1,8,-1
 1151 913 l 1,9,-1
 1151 705 l 1,10,-1
 831 705 l 1,11,-1
 991 428 l 1,12,-1
 811 324 l 1,13,-1
 651 601 l 1,14,-1
 491 324 l 1,15,-1
 311 428 l 1,16,-1
 471 705 l 1,17,-1
 151 705 l 1,0,-1
EndSplineSet
Validated: 1
EndChar

StartChar: plus
Encoding: 11 43 11
Width: 1302
VWidth: 1911
GlyphClass: 2
Flags: W
HStem: 705 208<151 547 755 1151>
VStem: 547 208<309 705 913 1309>
LayerCount: 2
Fore
SplineSet
151 705 m 1,0,-1
 151 913 l 1,1,-1
 547 913 l 1,2,-1
 547 1309 l 1,3,-1
 755 1309 l 1,4,-1
 755 913 l 1,5,-1
 1151 913 l 1,6,-1
 1151 705 l 1,7,-1
 755 705 l 1,8,-1
 755 309 l 1,9,-1
 547 309 l 1,10,-1
 547 705 l 1,11,-1
 151 705 l 1,0,-1
EndSplineSet
Validated: 1
EndChar

StartChar: comma
Encoding: 12 44 12
Width: 1302
VWidth: 1667
GlyphClass: 2
Flags: W
HStem: -358 540
VStem: 359 584
LayerCount: 2
Back
SplineSet
943 206 m 29,0,-1
 650 -410 l 1053
EndSplineSet
Fore
SplineSet
359 -358 m 1,0,-1
 651 182 l 1,1,-1
 943 182 l 1,2,-1
 856 0 l 1,3,-1
 539 -358 l 1,4,-1
 359 -358 l 1,0,-1
EndSplineSet
Validated: 1
EndChar

StartChar: hyphen
Encoding: 13 45 13
Width: 1302
VWidth: 1911
GlyphClass: 2
Flags: W
HStem: 705 208<151 1151>
LayerCount: 2
Fore
SplineSet
151 705 m 5,0,-1
 151 913 l 5,1,-1
 1151 913 l 5,2,-1
 1151 705 l 5,3,-1
 151 705 l 5,0,-1
EndSplineSet
Validated: 1
EndChar

StartChar: period
Encoding: 14 46 14
Width: 1302
VWidth: 1911
GlyphClass: 2
Flags: W
HStem: 0 312<524.859 777.141>
VStem: 495 312<29.8594 282.141>
LayerCount: 2
Fore
SplineSet
807 156 m 132,-1,1
 807 0 807 0 651 0 c 132,-1,2
 495 0 495 0 495 156 c 132,-1,3
 495 312 495 312 651 312 c 132,-1,0
 807 312 807 312 807 156 c 132,-1,1
EndSplineSet
Validated: 1
EndChar

StartChar: slash
Encoding: 15 47 15
Width: 1302
VWidth: 1667
GlyphClass: 2
Flags: W
HStem: 0 21G<151 378.666> 1598 20G<913.457 1151>
LayerCount: 2
Fore
SplineSet
151 0 m 1,0,-1
 923 1618 l 1,1,-1
 1151 1618 l 1,2,-1
 369 0 l 1,3,-1
 151 0 l 1,0,-1
EndSplineSet
Validated: 1
EndChar

StartChar: zero
Encoding: 16 48 16
Width: 1302
VWidth: 1667
GlyphClass: 2
Flags: W
HStem: 0 208<505.857 793.598> 1378 240<505.159 797.336>
VStem: 151 208<527.445 1179.55> 943 208<418.903 1087.62>
LayerCount: 2
Back
SplineSet
-2623.74121094 369.522460938 m 1,0,-1
 -1978.22070312 1410.640625 l 1,1,-1
 -1914.47851562 1371.11914062 l 1,2,-1
 -1850.73730469 1331.59667969 l 1,3,-1
 -2496.2578125 290.478515625 l 1,4,-1
 -2560 330 l 1,5,-1
 -2623.74121094 369.522460938 l 1,0,-1
-1972 809 m 0,6,7
 -1972 1378 -1972 1378 -2264 1378 c 128,-1,8
 -2556 1378 -2556 1378 -2556 809 c 0,9,10
 -2556 208 -2556 208 -2264 208 c 128,-1,11
 -1972 208 -1972 208 -1972 809 c 0,6,7
-2264 0 m 128,-1,13
 -2764 0 -2764 0 -2764 809 c 128,-1,14
 -2764 1618 -2764 1618 -2264 1618 c 128,-1,15
 -1764 1618 -1764 1618 -1764 809 c 128,-1,12
 -1764 0 -1764 0 -2264 0 c 128,-1,13
-1475 100 m 1,0,-1
 -262 100 l 1,1,-1
 -262 0 l 1,2,-1
 -1475 0 l 1,3,-1
 -1475 100 l 1,0,-1
1847 0 m 128,-1,1
 1347 0 1347 0 1347 627 c 2,2,-1
 1347 991 l 2,3,4
 1347 1618 1347 1618 1847 1618 c 128,-1,5
 2347 1618 2347 1618 2347 991 c 2,6,-1
 2347 627 l 2,7,0
 2347 0 2347 0 1847 0 c 128,-1,1
2139 627 m 2,8,-1
 2139 991 l 2,9,10
 2139 1410 2139 1410 1847 1410 c 128,-1,11
 1555 1410 1555 1410 1555 991 c 2,12,-1
 1555 627 l 2,13,14
 1555 208 1555 208 1847 208 c 128,-1,15
 2139 208 2139 208 2139 627 c 2,8,-1
1951 809 m 128,-1,17
 1951 627 1951 627 1847 627 c 128,-1,18
 1743 627 1743 627 1743 809 c 128,-1,19
 1743 991 1743 991 1847 991 c 128,-1,16
 1951 991 1951 991 1951 809 c 128,-1,17
EndSplineSet
Fore
SplineSet
651 0 m 132,-1,1
 151 0 151 0 151 809 c 132,-1,2
 151 1618 151 1618 651 1618 c 132,-1,3
 1151 1618 1151 1618 1151 809 c 132,-1,0
 1151 0 1151 0 651 0 c 132,-1,1
918 1095 m 5,4,-1
 445 333 l 5,5,6
 517 208 517 208 651 208 c 4,7,8
 943 208 943 208 943 809 c 4,9,10
 943 977 943 977 918 1095 c 5,4,-1
850 1270 m 5,11,12
 778 1378 778 1378 651 1378 c 4,13,14
 359 1378 359 1378 359 809 c 4,15,16
 359 639 359 639 382 517 c 5,17,-1
 850 1270 l 5,11,12
EndSplineSet
Validated: 1
EndChar

StartChar: one
Encoding: 17 49 17
Width: 1302
VWidth: 1488
GlyphClass: 2
Flags: W
HStem: 0 182<151 577 795 1151> 1598 20G<562.026 795>
VStem: 577 218<182 1272>
LayerCount: 2
Back
SplineSet
151 1049 m 5,0,-1
 577 1618 l 5,1,-1
 743.400390625 1493.20019531 l 5,2,-1
 317.400390625 924.200195312 l 5,3,-1
 151 1049 l 5,0,-1
577 1618 m 1,0,-1
 151 1049 l 1,1,-1
 1151 182 l 1,2,-1
 795 1618 l 1,0,-1
 577 1618 l 1,0,-1
3958 1738 m 1,0,-1
 3958 0 l 1,1,-1
 3750 0 l 1,2,-1
 3750 1133 l 1,3,-1
 3458 1038 l 1,4,-1
 3958 1738 l 1,0,-1
3458 1038 m 25,0,-1
 4211.23632812 1282.7421875 l 1049,1,-1
EndSplineSet
Fore
SplineSet
795 1618 m 1,0,-1
 795 182 l 1,1,-1
 1151 182 l 1,2,-1
 1151 0 l 1,3,-1
 151 0 l 1,4,-1
 151 182 l 1,5,-1
 577 182 l 1,6,-1
 577 1272 l 1,7,-1
 309 912 l 1,8,-1
 151 1049 l 1,9,-1
 577 1618 l 1,10,-1
 795 1618 l 1,0,-1
EndSplineSet
Validated: 1
EndChar

StartChar: two
Encoding: 18 50 18
Width: 1302
VWidth: 1488
GlyphClass: 2
Flags: W
HStem: 0 182<151 249.802 547 1151> 1436 182<480.726 820.194>
VStem: 151 208<1003.26 1321.16> 943 208<878.666 1310.3>
LayerCount: 2
Back
SplineSet
217 945 m 29,0,-1
 651 1121 l 1025
5682 1121 m 1,0,-1
 5182 925 l 1,1,-1
 5182 499 l 1,2,-1
 5715 980 l 1,3,-1
 5682 1121 l 1,0,-1
5682 1618 m 0,4,5
 5803 1618 5803 1618 5902 1571 c 0,6,7
 6109 1473 6109 1473 6163 1273 c 0,8,9
 6182 1200 6182 1200 6182 1148 c 0,10,11
 6181 924 6181 924 6071 712 c 0,12,13
 6001 578 6001 578 5885 461 c 0,14,15
 5761 336 5761 336 5568 182 c 1,16,-1
 6182 182 l 1,17,-1
 6182 0 l 1,18,-1
 5182 0 l 1,19,-1
 5182 182 l 1,20,21
 5546 352 5546 352 5766 629 c 0,22,23
 5863 750 5863 750 5901 828 c 0,24,25
 5974 976 5974 976 5974 1107 c 0,26,27
 5974 1257 5974 1257 5882.5 1347 c 128,-1,28
 5791 1437 5791 1437 5664 1437 c 0,29,30
 5535 1436 5535 1436 5457 1366 c 0,31,32
 5371 1288 5371 1288 5370 1172 c 0,33,34
 5370 1002 5370 1002 5546 933 c 1,35,-1
 5396 775 l 1,36,37
 5182 924 5182 924 5182 1140 c 0,38,39
 5182 1358 5182 1358 5311 1484 c 0,40,41
 5448 1618 5448 1618 5682 1618 c 0,4,5
-1968.71386719 1634 m 128,-1,1
 -1468.71386719 1634 -1468.71386719 1634 -1468.71386719 1099 c 128,-1,2
 -1468.71386719 564 -1468.71386719 564 -2066.71386719 182 c 1,3,-1
 -1468.71386719 182 l 1,4,-1
 -1468.71386719 0 l 1,5,-1
 -2467.71386719 0 l 1,6,-1
 -2467.71386719 182 l 1,7,8
 -2046.71386719 371 -2046.71386719 371 -1827.71386719 666 c 0,9,10
 -1676.71386719 869 -1676.71386719 869 -1676.71386719 1100 c 0,11,12
 -1676.71386719 1424 -1676.71386719 1424 -1968.71386719 1424 c 128,-1,13
 -2260.71386719 1424 -2260.71386719 1424 -2260.71386719 1100 c 0,14,15
 -2260.71386719 1067 -2260.71386719 1067 -2234.71386719 1018 c 1,16,-1
 -2386.71386719 883 l 1,17,18
 -2468.71386719 995 -2468.71386719 995 -2468.71386719 1100 c 0,19,0
 -2468.71386719 1634 -2468.71386719 1634 -1968.71386719 1634 c 128,-1,1
EndSplineSet
Fore
SplineSet
651 1618 m 0,0,1
 772 1618 772 1618 871 1571 c 0,2,3
 1080 1472 1080 1472 1132 1273 c 0,4,5
 1151 1200 1151 1200 1151 1118 c 0,6,7
 1150 917 1150 917 1043 715 c 0,8,9
 977 591 977 591 854 454 c 0,10,11
 726 312 726 312 547 182 c 1,12,-1
 1151 182 l 1,13,-1
 1151 0 l 1,14,-1
 151 0 l 1,15,-1
 151 182 l 1,16,17
 512 350 512 350 735 629 c 0,18,19
 832 750 832 750 870 828 c 0,20,21
 943 976 943 976 943 1107 c 0,22,23
 943 1263 943 1263 862 1349 c 0,24,25
 778 1436 778 1436 651 1436 c 0,26,27
 528 1435 528 1435 442 1357 c 0,28,29
 360 1283 360 1283 359 1172 c 0,30,31
 359 1081 359 1081 407 1022 c 1,32,-1
 217 945 l 1,33,34
 151 1055 151 1055 151 1160 c 0,35,36
 151 1358 151 1358 280 1484 c 0,37,38
 417 1618 417 1618 651 1618 c 0,0,1
EndSplineSet
Validated: 1
EndChar

StartChar: three
Encoding: 19 51 19
Width: 1302
VWidth: 1667
GlyphClass: 2
Flags: W
HStem: -1 203<385.197 807.74> 1410 208<151 813>
VStem: 987 210<369.596 729.681>
LayerCount: 2
Back
SplineSet
-2552 960 m 1,0,-1
 -2624 900 l 1,1,-1
 -2823 993 l 1,2,-1
 -2320 1410 l 1,3,-1
 -2982 1410 l 1,4,-1
 -2982 1618 l 1,5,-1
 -2022 1618 l 1,6,-1
 -2023 1410 l 1,7,-1
 -2382 1106 l 1,8,9
 -2226 1078 -2226 1078 -2110 967 c 0,10,11
 -1984 846 -1984 846 -1948 669 c 0,12,13
 -1918.98725975 525.457396141 -1918.98725975 525.457396141 -1960.25 388.357421875 c 128,-1,14
 -2002.43480893 248.193773408 -2002.43480893 248.193773408 -2108 150 c 0,15,16
 -2182 81 -2182 81 -2279.5 42.5 c 0,17,18
 -2377 4 -2377 4 -2482 0 c 0,17,18
 -2625 -6 -2625 -6 -2763 48 c 0,19,20
 -2901 102 -2901 102 -3006 203 c 1,19,-1
 -2914 379 l 1,20,21
 -2832.36198224 286.275559478 -2832.36198224 286.275559478 -2718.84960938 239.58203125 c 128,-1,22
 -2602.00019468 191.513645269 -2602.00019468 191.513645269 -2482 204 c 0,23,24
 -2353.28852495 217.392481396 -2353.28852495 217.392481396 -2262.70996094 295.294921875 c 128,-1,25
 -2216.68274317 334.880806591 -2216.68274317 334.880806591 -2186.87829589 388.755638125 c 0,26,27
 -2157.07384861 442.63046966 -2157.07384861 442.63046966 -2149 502 c 0,26,27
 -2137.25844359 588.336177293 -2137.25844359 588.336177293 -2170.21777344 673.477539062 c 128,-1,28
 -2201.04754159 753.121464956 -2201.04754159 753.121464956 -2266 818 c 0,29,30
 -2383 935 -2383 935 -2552 960 c 1,0,-1
  Spiro
    -2552 960 v
    -2624 900 v
    -2823 993 v
    -2320 1410 v
    -2982 1410 v
    -2982 1618 v
    -2022 1618 v
    -2023 1410 v
    -2382 1106 v
    -2110 967 o
    -1948 669 o
    -2108 150 o
    -2482 0 o
    -3006 203 v
    -2914 379 v
    -2482 204 o
    -2149 502 o
    -2266 818 o
    0 0 z
  EndSpiro
224 657 m 1,0,-1
 1108 1410 l 1025
  Spiro
    224 657 {
    1108 1410 v
    0 0 z
  EndSpiro
EndSplineSet
Fore
SplineSet
581 960 m 1,0,-1
 509 900 l 1,1,-1
 310 993 l 1,2,-1
 813 1410 l 1,3,-1
 151 1410 l 1,4,-1
 151 1618 l 1,5,-1
 1111 1618 l 1,6,-1
 1110 1410 l 1,7,-1
 751 1106 l 1,8,9
 907 1078 907 1078 1028 962 c 0,10,11
 1197 800 1197 800 1197 540 c 0,12,13
 1197 468 1197 468 1173 388 c 0,14,15
 1131 248 1131 248 1041 165 c 0,16,17
 864 0 864 0 624 -1 c 0,18,19
 487 -1 487 -1 357 53 c 128,-1,20
 227 107 227 107 127 203 c 1,21,-1
 219 379 l 1,22,23
 301 286 301 286 404 244 c 128,-1,24
 507 202 507 202 603 202 c 0,25,26
 761 202 761 202 874 299 c 128,-1,27
 987 396 987 396 987 547 c 128,-1,28
 987 698 987 698 868.5 816.5 c 128,-1,29
 750 935 750 935 581 960 c 1,0,-1
EndSplineSet
Validated: 1
EndChar

StartChar: four
Encoding: 20 52 20
Width: 1302
VWidth: 1667
GlyphClass: 2
Flags: W
HStem: 0 21G<735 943> 336 182<372 735 943 1151> 1598 20G<438.673 651>
VStem: 735 208<0 336 518 1198>
LayerCount: 2
Back
SplineSet
-4844 900 m 1,0,-1
 -4844 390 l 1,1,-1
 -4594 390 l 1,2,-1
 -4594 208 l 1,3,-1
 -4844 208 l 1,4,-1
 -4844 0 l 1,5,-1
 -5052 0 l 1,6,-1
 -5052 208 l 1,7,-1
 -5594 208 l 1,8,-1
 -5594 809 l 1,9,-1
 -5094 1618 l 1,10,-1
 -4802 1618 l 1,11,-1
 -5412 749.8046875 l 1,12,-1
 -5412 390 l 1,13,-1
 -5052 390 l 1,14,-1
 -5052 808 l 1,15,-1
 -4844 900 l 1,0,-1
4669 1496 m 1,0,1
 4127 1383 4127 1383 4001 699 c 1,2,3
 4003 582 4003 582 4005 466 c 1,4,-1
 4331 466 l 1,5,-1
 4331 1252 l 1,6,-1
 4539 1312 l 1,7,-1
 4539 466 l 1,8,-1
 4867 466 l 1,9,-1
 4867 284 l 1,10,-1
 4539 284 l 1,11,-1
 4539 0 l 1,12,-1
 4331 0 l 1,13,-1
 4331 284 l 1,14,-1
 3832 284 l 1,15,16
 3832 476 3832 476 3832 666 c 1,17,18
 3911 1491 3911 1491 4589 1680.1953125 c 1,19,-1
 4669 1496 l 1,0,1
7959 1202 m 1,32,-1
 7638 549 l 1,33,-1
 7959 545 l 1,34,-1
 7959 1202 l 1,32,-1
8167 1618 m 1,35,-1
 8172 545 l 1,36,-1
 8313 545 l 1,37,-1
 8313 363 l 1,38,-1
 8172 363 l 1,39,-1
 8172 182 l 1,40,-1
 8313 182 l 1,41,-1
 8313 0 l 1,42,-1
 7813 0 l 1,43,-1
 7813 182 l 1,44,-1
 7959 182 l 1,45,-1
 7959 363 l 1,46,-1
 7313 363 l 1,47,-1
 7959 1618 l 1,48,-1
 8167 1618 l 1,35,-1
-2733 1618 m 5,0,-1
 -2717 545 l 5,1,-1
 -2509 545 l 5,2,-1
 -2509 363 l 5,3,-1
 -2717 363 l 5,4,-1
 -2717 0 l 5,5,-1
 -2925 0 l 5,6,-1
 -2925 363 l 5,7,-1
 -3509 363 l 5,8,-1
 -3324 1605 l 5,10,-1
 -3117 1605 l 5,11,-1
 -3288 545 l 5,14,-1
 -2925 545 l 5,15,-1
 -2910 1612 l 5,16,-1
 -2733 1618 l 5,0,-1
-957 1618 m 1,0,-1
 -941 545 l 1,1,-1
 -733 545 l 1,2,-1
 -733 363 l 1,3,-1
 -941 363 l 1,4,-1
 -941 0 l 1,5,-1
 -1149 0 l 1,6,-1
 -1149 363 l 1,7,-1
 -1733 363 l 1,8,-1
 -1548 1381 l 1,10,-1
 -1341 1381 l 1,11,-1
 -1512 545 l 1,14,-1
 -1149 545 l 1,15,-1
 -1134 1612 l 1,16,-1
 -957 1618 l 1,0,-1
2565 809 m 1,0,-1
 2565 545 l 1,1,-1
 2773 545 l 1,2,-1
 2773 363 l 1,3,-1
 2565 363 l 1,4,-1
 2565 0 l 1,5,-1
 2357 0 l 1,6,-1
 2357 363 l 1,7,-1
 1773 363 l 1,8,-1
 1773 545 l 1,9,-1
 2358 1618 l 1,10,-1
 2565 1618 l 1,11,-1
 2565 1293 l 1,12,-1
 2358 1230 l 1,13,-1
 1994 545 l 1,14,-1
 2357 545 l 1,15,-1
 2358 715 l 1,16,-1
 2565 809 l 1,0,-1
EndSplineSet
Fore
SplineSet
943 1198 m 1,0,-1
 943 518 l 1,1,-1
 1151 518 l 1,2,-1
 1151 336 l 1,3,-1
 943 336 l 1,4,-1
 943 0 l 1,5,-1
 735 0 l 1,6,-1
 735 336 l 1,7,-1
 151 336 l 1,8,-1
 151 518 l 1,9,-1
 444 1618 l 1,10,-1
 651 1618 l 1,11,-1
 372 518 l 1,12,-1
 735 518 l 1,13,-1
 735 1198 l 1,14,-1
 943 1198 l 1,0,-1
EndSplineSet
Validated: 1
EndChar

StartChar: five
Encoding: 21 53 21
Width: 1302
VWidth: 1667
GlyphClass: 2
Flags: W
HStem: 0 208<254 625.195> 901 186<398 720.344> 1410 208<441 943>
VStem: 943 208<412.51 730.726>
LayerCount: 2
Back
SplineSet
441 1410 m 1,0,-1
 254 0 l 1053
EndSplineSet
Fore
SplineSet
441 1410 m 1,0,-1
 398 1087 l 1,1,2
 1151 1084 1151 1084 1151 564 c 0,3,4
 1151 1 1151 1 254 0 c 1,5,-1
 171 208 l 1,6,7
 943 208 943 208 943 564 c 0,8,9
 943 900 943 900 373 901 c 1,10,-1
 369 869 l 1,11,-1
 151 869 l 1,12,-1
 251 1618 l 1,13,-1
 943 1618 l 1,14,-1
 943 1410 l 1,15,-1
 441 1410 l 1,0,-1
EndSplineSet
Validated: 1
EndChar

StartChar: six
Encoding: 22 54 22
Width: 1302
VWidth: 1667
GlyphClass: 2
Flags: W
HStem: 0 182<477.451 825.722> 897 182<473.867 824.93> 1598 20G<401.5 669.655>
VStem: 151 208<307.856 762.645> 943 208<305.522 773.021>
LayerCount: 2
Back
SplineSet
-4126 1507 m 1,23,-1
 -882 257 l 1025,24,-1
-3918 642 m 2,23,-1
 -3918 436 l 2,24,25
 -3918 182 -3918 182 -3626 182 c 128,-1,26
 -3334 182 -3334 182 -3334 436 c 2,27,-1
 -3334 642 l 2,28,29
 -3334 897 -3334 897 -3626 897 c 128,-1,30
 -3918 897 -3918 897 -3918 642 c 2,23,-1
-3176 1162 m 1,31,-1
 -3384 1182 l 1,32,33
 -3384 1437 -3384 1437 -3651 1437 c 128,-1,34
 -3918 1437 -3918 1437 -3918 1182 c 1,35,36
 -3918 1075 -3918 1075 -3918 968 c 1,37,38
 -3810 1079 -3810 1079 -3626 1079 c 0,39,40
 -3126 1078 -3126 1078 -3126 642 c 2,41,-1
 -3126 436 l 2,42,43
 -3126 0 -3126 0 -3626 0 c 128,-1,44
 -4126 0 -4126 0 -4126 436 c 2,45,-1
 -4126 642 l 2,46,47
 -4126 674 -4126 674 -4126 1182 c 1,48,49
 -4126 1618 -4126 1618 -3651 1618 c 128,-1,50
 -3176 1618 -3176 1618 -3176 1162 c 1,31,-1
EndSplineSet
Fore
SplineSet
1151 539 m 0,0,1
 1151 0 1151 0 672 0 c 0,2,3
 151 0 151 0 151 539 c 0,4,5
 151 703 l 0,6,7
 151 1348 151 1348 652 1618 c 1,8,-1
 780 1473 l 5,9,10
 479 1309 479 1309 400 1020 c 5,11,12
 484 1079 484 1079 651 1079 c 0,13,14
 1151 1079 1151 1079 1151 539 c 0,0,1
359 539 m 0,15,16
 359 182 359 182 651 182 c 128,-1,17
 943 182 943 182 943 539 c 0,18,19
 943 897 943 897 651 897 c 128,-1,20
 359 897 359 897 359 539 c 0,15,16
EndSplineSet
Validated: 1
EndChar

StartChar: seven
Encoding: 23 55 23
Width: 1302
VWidth: 1667
GlyphClass: 2
Flags: W
HStem: 0 21G<389 625.083> 1410 208<151 900>
LayerCount: 2
Fore
SplineSet
618 0 m 1,0,-1
 389 0 l 1,1,-1
 900 1410 l 1,2,-1
 151 1410 l 1,3,-1
 151 1618 l 1,4,-1
 1191 1618 l 1,5,-1
 618 0 l 1,0,-1
EndSplineSet
Validated: 1
EndChar

StartChar: eight
Encoding: 24 56 24
Width: 1302
VWidth: 1667
GlyphClass: 2
Flags: W
HStem: 0 182<409.176 892.824> 691 182<456.595 845.405> 1437 181<456.385 845.615>
VStem: 104 208<274.293 601.248> 151 208<971.785 1336.5> 943 208<972.029 1336.5> 990 208<274.293 601.248>
LayerCount: 2
Fore
SplineSet
1151 1155 m 0,0,1
 1151 909 1151 909 1025 799 c 1,2,3
 1198 693 1198 693 1198 436 c 0,4,5
 1198 0 1198 0 698 0 c 2,6,-1
 604 0 l 2,7,8
 104 0 104 0 104 436 c 0,9,10
 104 693 104 693 277 799 c 1,11,12
 151 908 151 908 151 1155 c 0,13,14
 151 1618 151 1618 651 1618 c 128,-1,15
 1151 1618 1151 1618 1151 1155 c 0,0,1
359 1155 m 128,-1,17
 359 873 359 873 651 873 c 128,-1,18
 943 873 943 873 943 1155 c 128,-1,19
 943 1437 943 1437 651 1437 c 128,-1,16
 359 1437 359 1437 359 1155 c 128,-1,17
604 182 m 2,20,-1
 698 182 l 2,21,22
 990 182 990 182 990 436.5 c 128,-1,23
 990 691 990 691 698 691 c 2,24,-1
 651 691 l 1,25,-1
 604 691 l 2,26,27
 312 691 312 691 312 436.5 c 128,-1,28
 312 182 312 182 604 182 c 2,20,-1
EndSplineSet
Validated: 1
EndChar

StartChar: nine
Encoding: 25 57 25
Width: 1302
VWidth: 1667
GlyphClass: 2
Flags: W
HStem: 0 21G<539.783 870.5> 539 182<477.07 812.681> 1436 182<477.07 824.93>
VStem: 151 208<845.167 1312.48> 943 208<844.697 1312.48>
LayerCount: 2
Fore
SplineSet
151 1079 m 132,-1,1
 151 1618 151 1618 651 1618 c 132,-1,2
 1151 1618 1151 1618 1151 1079 c 4,3,4
 1151 485 1151 485 590 0 c 5,5,-1
 359 92 l 5,6,7
 705 339 705 339 816 557 c 5,8,9
 758 539 758 539 651 539 c 4,10,0
 151 540 151 540 151 1079 c 132,-1,1
943 1079 m 4,11,12
 943 1436 943 1436 651 1436 c 132,-1,13
 359 1436 359 1436 359 1079 c 4,14,15
 359 721 359 721 651 721 c 132,-1,16
 943 721 943 721 943 1079 c 4,11,12
EndSplineSet
Validated: 1
EndChar

StartChar: colon
Encoding: 26 58 26
Width: 1302
VWidth: 1667
GlyphClass: 2
Flags: W
HStem: 0 312<524.859 777.141> 809 312<524.859 777.141>
VStem: 495 312<29.8594 282.141 838.859 1091.14>
LayerCount: 2
Fore
SplineSet
807 156 m 128,-1,1
 807 0 807 0 651 0 c 128,-1,2
 495 0 495 0 495 156 c 128,-1,3
 495 312 495 312 651 312 c 128,-1,0
 807 312 807 312 807 156 c 128,-1,1
807 965 m 132,-1,5
 807 809 807 809 651 809 c 132,-1,6
 495 809 495 809 495 965 c 132,-1,7
 495 1121 495 1121 651 1121 c 132,-1,4
 807 1121 807 1121 807 965 c 132,-1,5
EndSplineSet
Validated: 1
EndChar

StartChar: semicolon
Encoding: 27 59 27
Width: 1302
VWidth: 1667
GlyphClass: 2
Flags: W
HStem: 809 312<670.859 923.141>
VStem: 641 312<838.859 1091.14>
LayerCount: 2
Fore
SplineSet
359 -358 m 1,0,-1
 651 182 l 1,1,-1
 943 182 l 1,2,-1
 856 0 l 5,3,-1
 539 -358 l 1,4,-1
 359 -358 l 1,0,-1
953 965 m 128,-1,6
 953 809 953 809 797 809 c 128,-1,7
 641 809 641 809 641 965 c 128,-1,8
 641 1121 641 1121 797 1121 c 128,-1,5
 953 1121 953 1121 953 965 c 128,-1,6
EndSplineSet
Validated: 1
EndChar

StartChar: less
Encoding: 28 60 28
Width: 1302
VWidth: 1667
GlyphClass: 2
Flags: W
LayerCount: 2
Fore
SplineSet
1151 1348 m 5,0,-1
 1151 1167 l 5,1,-1
 357 809 l 5,2,-1
 1151 451 l 5,3,-1
 1151 270 l 5,4,-1
 151 718 l 5,5,-1
 151 900 l 5,6,-1
 1151 1348 l 5,0,-1
EndSplineSet
Validated: 1
EndChar

StartChar: equal
Encoding: 29 61 29
Width: 1302
VWidth: 1667
GlyphClass: 2
Flags: W
HStem: 497 182<151 1151> 939 182<151 1151>
LayerCount: 2
Back
SplineSet
1077.66699219 426.666992188 m 1,0,-1
 224.333007812 426.666992188 l 1,1,-1
 224.333007812 954.026367188 l 1,2,-1
 1077.66699219 954.026367188 l 1,3,-1
 1077.66699219 426.666992188 l 1,0,-1
  Named: "gold-rect"
EndSplineSet
Fore
SplineSet
151 497 m 1,0,-1
 151 679 l 1,1,-1
 1151 679 l 1,2,-1
 1151 497 l 1,3,-1
 151 497 l 1,0,-1
151 939 m 1,4,-1
 151 1121 l 1,5,-1
 1151 1121 l 1,6,-1
 1151 939 l 1,7,-1
 151 939 l 1,4,-1
EndSplineSet
Validated: 1
EndChar

StartChar: greater
Encoding: 30 62 30
Width: 1302
VWidth: 1667
GlyphClass: 2
Flags: W
LayerCount: 2
Fore
SplineSet
151 1348 m 1,0,-1
 1151 900 l 1,1,-1
 1151 718 l 1,2,-1
 151 270 l 1,3,-1
 151 451 l 1,4,-1
 945 809 l 1,5,-1
 151 1167 l 1,6,-1
 151 1348 l 1,0,-1
EndSplineSet
Validated: 1
EndChar

StartChar: question
Encoding: 31 63 31
Width: 1302
VWidth: 1667
GlyphClass: 2
Flags: W
HStem: 0 312<524.859 777.141> 1431 187<465.544 859.396>
VStem: 151 208<1121 1314.66> 495 312<29.8594 282.141> 547 208<494 730.54> 943 208<1071.84 1346.79>
LayerCount: 2
Fore
SplineSet
1151 1219 m 4,0,1
 1151 1011 1151 1011 878 818 c 4,2,3
 755 731 755 731 755 494 c 5,4,-1
 547 494 l 5,5,6
 547 814 547 814 749 946 c 4,7,8
 942 1072 942 1072 943 1199 c 4,9,10
 943 1431 943 1431 651 1431 c 132,-1,11
 359 1431 359 1431 359 1121 c 5,12,-1
 151 1121 l 5,13,14
 152 1618 152 1618 651.5 1618 c 132,-1,15
 1151 1618 1151 1618 1151 1219 c 4,0,1
807 156 m 132,-1,17
 807 0 807 0 651 0 c 132,-1,18
 495 0 495 0 495 156 c 132,-1,19
 495 312 495 312 651 312 c 132,-1,16
 807 312 807 312 807 156 c 132,-1,17
EndSplineSet
Validated: 1
EndChar

StartChar: at
Encoding: 32 64 32
Width: 1302
VWidth: 1667
GlyphClass: 2
Flags: W
HStem: 0 182<478.327 1093> 449 182<657.039 1029> 985 182<657.469 1029> 1436 182<478.509 900.812>
VStem: 108 183<431.415 1186.19> 433 146<700.482 919.88> 1029 164<631 985 1167 1315.74>
LayerCount: 2
Fore
SplineSet
651 1436 m 0,0,1
 291 1436 291 1436 291 808 c 0,2,3
 291 182 291 182 648 182 c 2,4,-1
 1113 182 l 5,5,-1
 1093 0 l 1,6,-1
 648 0 l 2,7,8
 108 0 108 0 108 809 c 128,-1,9
 108 1618 108 1618 650.5 1618 c 128,-1,10
 1193 1618 1193 1618 1193 1142 c 2,11,-1
 1193 449 l 1,12,-1
 907 449 l 2,13,14
 433 449 433 449 433 807 c 0,15,16
 434 1167 434 1167 907 1167 c 2,17,-1
 1029 1167 l 1,18,19
 1026 1436 1026 1436 651 1436 c 0,0,1
579 809 m 0,20,21
 579 631 579 631 907 631 c 2,22,-1
 1029 631 l 1,23,-1
 1029 985 l 1,24,-1
 907 985 l 2,25,26
 580 985 580 985 579 809 c 0,20,21
EndSplineSet
Validated: 1
EndChar

StartChar: A
Encoding: 33 65 33
Width: 1302
VWidth: 1667
GlyphClass: 2
Flags: W
HStem: 0 21G<111 304.72 958.018 1191> 542 181<507 783> 1598 20G<541.611 760.389>
LayerCount: 2
Fore
SplineSet
963 0 m 1,0,-1
 828 542 l 1,1,-1
 454 542 l 1,2,-1
 299 0 l 1,3,-1
 111 0 l 1,4,-1
 547 1618 l 1,5,-1
 755 1618 l 1,6,-1
 1191 0 l 1,7,-1
 963 0 l 1,0,-1
507 723 m 1,8,-1
 783 723 l 1,9,-1
 655 1241 l 1,10,-1
 507 723 l 1,8,-1
EndSplineSet
Validated: 1
EndChar

StartChar: B
Encoding: 34 66 34
Width: 1302
VWidth: 1667
GlyphClass: 2
Flags: W
HStem: 0 182<359 845.824> 809 182<359 771.835> 1436 182<359 774.701>
VStem: 151 208<182 809 991 1436> 843 208<1058.39 1365.46> 943 208<276.864 719.103>
LayerCount: 2
Fore
SplineSet
359 182 m 1,0,-1
 651 182 l 2,1,2
 943 182 943 182 943 436 c 2,3,-1
 943 554 l 2,4,5
 943 809 943 809 651 809 c 2,6,-1
 359 809 l 1,7,-1
 359 182 l 1,0,-1
601 1618 m 2,8,9
 1051 1618 1051 1618 1051 1214 c 0,10,11
 1051 1029 1051 1029 957 929 c 1,12,13
 1151 827 1151 827 1151 554 c 2,14,-1
 1151 436 l 2,15,16
 1151 0 1151 0 651 0 c 2,17,-1
 151 0 l 1,18,-1
 151 810 l 1,19,-1
 151 991 l 1,20,-1
 151 1618 l 1,21,-1
 601 1618 l 2,8,9
359 991 m 1,22,-1
 601 991 l 2,23,24
 843 991 843 991 843 1213.5 c 128,-1,25
 843 1436 843 1436 601 1436 c 1,26,-1
 359 1436 l 1,27,-1
 359 991 l 1,22,-1
EndSplineSet
Validated: 1
EndChar

StartChar: C
Encoding: 35 67 35
Width: 1302
VWidth: 1667
GlyphClass: 2
Flags: W
HStem: 0 182<456.176 1151> 1439 179<456.176 1151>
VStem: 151 208<276.864 1341.14>
LayerCount: 2
Fore
SplineSet
151 436 m 2,0,-1
 151 1182 l 2,1,2
 151 1618 151 1618 651 1618 c 2,3,-1
 1151 1618 l 1,4,-1
 1151 1436 l 1,5,-1
 651 1439 l 1,6,7
 359 1436 359 1436 359 1182 c 2,8,-1
 359 436 l 2,9,10
 359 182 359 182 651 182 c 2,11,-1
 1151 182 l 1,12,-1
 1151 0 l 1,13,-1
 651 0 l 2,14,15
 151 0 151 0 151 436 c 2,0,-1
EndSplineSet
Validated: 1
EndChar

StartChar: D
Encoding: 36 68 36
Width: 1302
VWidth: 1667
GlyphClass: 2
Flags: W
HStem: 0 182<359 686.744> 1436 182<359 686.744>
VStem: 151 208<182 1436> 943 208<402.589 1215.41>
LayerCount: 2
Back
SplineSet
-1122 1618 m 2,0,1
 -622 1618 -622 1618 -622 1182 c 2,2,-1
 -622 436 l 2,3,4
 -622 0 -622 0 -1122 0 c 2,5,6
 -1622 0 l 1,7,-1
 -1622 1618 l 1,8,-1
 -1122 1618 l 2,0,1
-1414 182 m 1,9,-1
 -1122 182 l 2,10,11
 -830 182 -830 182 -830 436 c 2,12,-1
 -830 1182 l 2,13,14
 -830 1436 -830 1436 -1122 1436 c 0,15,16
 -1414 1436 l 1,17,-1
 -1414 182 l 1,9,-1
EndSplineSet
Fore
SplineSet
1151 1009 m 6,0,-1
 1151 609 l 6,1,2
 1151 0 1151 0 359 0 c 5,3,4
 255 0 255 0 151 0 c 5,5,-1
 151 1618 l 5,6,-1
 359 1618 l 5,7,8
 1151 1618 1151 1618 1151 1009 c 6,0,-1
359 182 m 5,9,10
 943 182 943 182 943 609 c 6,11,-1
 943 1009 l 6,12,13
 943 1436 943 1436 359 1436 c 5,14,-1
 359 182 l 5,9,10
EndSplineSet
Validated: 1
EndChar

StartChar: E
Encoding: 37 69 37
Width: 1302
VWidth: 1667
GlyphClass: 2
Flags: W
HStem: 0 182<359 1151> 718 182<359 941> 1436 182<359 1151>
VStem: 151 208<182 718 900 1436>
CounterMasks: 1 e0
LayerCount: 2
Fore
SplineSet
1151 0 m 1,0,-1
 151 0 l 1,1,-1
 151 1618 l 1,2,-1
 1151 1618 l 1,3,-1
 1151 1436 l 1,4,-1
 359 1436 l 1,5,-1
 359 900 l 5,6,-1
 941 900 l 5,7,-1
 941 718 l 5,8,-1
 359 718 l 5,9,-1
 359 182 l 1,10,-1
 1151 182 l 1,11,-1
 1151 0 l 1,0,-1
EndSplineSet
Validated: 1
EndChar

StartChar: F
Encoding: 38 70 38
Width: 1302
VWidth: 1667
GlyphClass: 2
Flags: W
HStem: 0 21G<151 359> 718 182<359 943> 1436 182<359 1151>
VStem: 151 208<0 718 900 1436>
LayerCount: 2
Fore
SplineSet
151 0 m 1,0,-1
 151 1618 l 1,1,-1
 1151 1618 l 1,2,-1
 1151 1436 l 1,3,-1
 359 1436 l 1,4,-1
 359 900 l 1,5,-1
 943 900 l 1,6,-1
 943 718 l 1,7,-1
 359 718 l 1,8,-1
 359 0 l 1,9,-1
 151 0 l 1,0,-1
EndSplineSet
Validated: 1
EndChar

StartChar: G
Encoding: 39 71 39
Width: 1302
VWidth: 1667
GlyphClass: 2
Flags: W
HStem: 0 182<453.783 848.217> 718 182<651 943> 1436 182<456.176 946>
VStem: 151 208<276.864 1341.14> 943 208<276.864 718>
CounterMasks: 1 e0
LayerCount: 2
Fore
SplineSet
651 900 m 1,0,-1
 1151 900 l 1,1,-1
 1151 436 l 2,2,3
 1151 0 1151 0 651 0 c 128,-1,4
 151 0 151 0 151 436 c 2,5,-1
 151 1182 l 2,6,7
 151 1618 151 1618 651 1618 c 2,8,-1
 946 1618 l 1,9,-1
 1031 1436 l 1,10,-1
 651 1436 l 2,11,12
 359 1436 359 1436 359 1182 c 2,13,-1
 359 436 l 2,14,15
 359 182 359 182 651 182 c 128,-1,16
 943 182 943 182 943 436 c 2,17,-1
 943 718 l 1,18,-1
 651 718 l 5,19,-1
 651 900 l 1,0,-1
EndSplineSet
Validated: 1
EndChar

StartChar: H
Encoding: 40 72 40
Width: 1302
VWidth: 1667
GlyphClass: 2
Flags: W
HStem: 0 21G<151 359 943 1151> 718 182<359 943> 1598 20G<151 359 943 1151>
VStem: 151 208<0 718 900 1618> 943 208<0 718 900 1618>
LayerCount: 2
Fore
SplineSet
359 0 m 1,0,-1
 151 0 l 1,1,-1
 151 1618 l 1,2,-1
 359 1618 l 1,3,-1
 359 900 l 1,4,-1
 943 900 l 1,5,-1
 943 1618 l 1,6,-1
 1151 1618 l 1,7,-1
 1151 0 l 1,8,-1
 943 0 l 1,9,-1
 943 718 l 1,10,-1
 359 718 l 1,11,-1
 359 0 l 1,0,-1
EndSplineSet
Validated: 1
EndChar

StartChar: I
Encoding: 41 73 41
Width: 1302
VWidth: 1667
GlyphClass: 2
Flags: W
HStem: 0 182<289 547 755 1013> 1436 182<289 547 755 1013>
VStem: 547 208<182 1436>
LayerCount: 2
Fore
SplineSet
289 182 m 1,0,-1
 547 182 l 1,1,-1
 547 1436 l 1,2,-1
 289 1436 l 1,3,-1
 289 1618 l 1,4,-1
 1013 1618 l 1,5,-1
 1013 1436 l 1,6,-1
 755 1436 l 1,7,-1
 755 182 l 1,8,-1
 1013 182 l 1,9,-1
 1013 0 l 1,10,-1
 289 0 l 1,11,-1
 289 182 l 1,0,-1
EndSplineSet
Validated: 1
EndChar

StartChar: J
Encoding: 42 74 42
Width: 1302
VWidth: 1667
GlyphClass: 2
Flags: W
HStem: 0 182<151 845.824> 1598 20G<943 1151>
VStem: 943 208<276.864 1618>
LayerCount: 2
Fore
SplineSet
943 436 m 6,0,-1
 943 1618 l 1,1,-1
 1151 1618 l 1,2,-1
 1151 436 l 6,3,4
 1151 0 1151 0 651 0 c 2,5,-1
 151 0 l 1,6,-1
 151 182 l 1,7,-1
 651 182 l 2,8,9
 943 182 943 182 943 436 c 6,0,-1
EndSplineSet
Validated: 1
EndChar

StartChar: K
Encoding: 43 75 43
Width: 1302
VWidth: 1667
GlyphClass: 2
Flags: W
HStem: 0 21G<151 359 893.68 1151> 1598 20G<151 359 893.68 1151>
VStem: 151 208<0 718 900 1618>
LayerCount: 2
Back
SplineSet
1159.62695312 325.973632812 m 25,0,-1
 282.400390625 325.973632812 l 25,1,-1
 1086.24023438 1380.69335938 l 1025,2,-1
-909.280273438 672.426757812 m 1025,3,-1
EndSplineSet
Fore
SplineSet
359 0 m 1,0,-1
 151 0 l 1,1,-1
 151 1618 l 1,2,-1
 359 1618 l 1,3,-1
 359 900 l 1,4,-1
 909 1618 l 1,5,-1
 1151 1618 l 1,6,-1
 527 809 l 1,7,-1
 1151 0 l 1,8,-1
 909 0 l 1,9,-1
 359 718 l 1,10,-1
 359 0 l 1,0,-1
EndSplineSet
Validated: 1
EndChar

StartChar: L
Encoding: 44 76 44
Width: 1302
VWidth: 1667
GlyphClass: 2
Flags: W
HStem: 0 182<359 1151> 1598 20G<151 359>
VStem: 151 208<182 1618>
LayerCount: 2
Fore
SplineSet
1151 0 m 1,0,-1
 151 0 l 5,1,-1
 151 1618 l 1,2,-1
 359 1618 l 1,3,-1
 359 182 l 1,4,-1
 1151 182 l 1,5,-1
 1151 0 l 1,0,-1
EndSplineSet
Validated: 1
EndChar

StartChar: M
Encoding: 45 77 45
Width: 1302
VWidth: 1667
GlyphClass: 2
Flags: W
HStem: 0 21G<80 291 1011 1222> 1598 20G<80 296.213 1005.79 1222>
VStem: 80 208<0 1132> 1014 208<0 1132>
LayerCount: 2
Fore
SplineSet
754 539 m 1,0,-1
 548 539 l 1,1,-1
 288 1132 l 1,2,-1
 291 0 l 1,3,-1
 80 0 l 1,4,-1
 80 1618 l 1,5,-1
 288 1618 l 1,6,-1
 651 734 l 1,7,-1
 1014 1618 l 1,8,-1
 1222 1618 l 1,9,-1
 1222 0 l 1,10,-1
 1011 0 l 1,11,-1
 1014 1132 l 1,12,-1
 754 539 l 1,0,-1
EndSplineSet
Validated: 1
EndChar

StartChar: N
Encoding: 46 78 46
Width: 1302
VWidth: 1667
GlyphClass: 2
Flags: W
HStem: 0 21G<151 359 933.118 1151> 1598 20G<151 368.882 943 1151>
VStem: 151 208<0 1182> 943 208<436 1618>
LayerCount: 2
Fore
SplineSet
1151 1618 m 1,0,-1
 1151 0 l 1,1,-1
 943 0 l 1,2,-1
 359 1182 l 1,3,-1
 359 0 l 1,4,-1
 151 0 l 1,5,-1
 151 1618 l 1,6,-1
 359 1618 l 1,7,-1
 943 436 l 1,8,-1
 943 1618 l 1,9,-1
 1151 1618 l 1,0,-1
EndSplineSet
Validated: 1
EndChar

StartChar: O
Encoding: 47 79 47
Width: 1302
VWidth: 1667
GlyphClass: 2
Flags: W
HStem: 0 182<453.783 848.217> 1437 181<453.783 848.217>
VStem: 151 208<276.864 1341.14> 943 208<276.864 1341.14>
LayerCount: 2
Fore
SplineSet
359 1182 m 2,0,-1
 359 436 l 2,1,2
 359 182 359 182 651 182 c 128,-1,3
 943 182 943 182 943 436 c 2,4,-1
 943 1182 l 2,5,6
 943 1437 943 1437 651 1437 c 128,-1,7
 359 1437 359 1437 359 1182 c 2,0,-1
1151 1182 m 2,8,-1
 1151 436 l 2,9,10
 1151 0 1151 0 651 0 c 136,-1,11
 151 0 151 0 151 436 c 2,12,-1
 151 1182 l 2,13,14
 151 1618 151 1618 651 1618 c 144,-1,15
 1151 1618 1151 1618 1151 1182 c 2,8,-1
EndSplineSet
Validated: 1
EndChar

StartChar: P
Encoding: 48 80 48
Width: 1302
VWidth: 1667
GlyphClass: 2
Flags: W
HStem: 0 21G<151 359> 718 182<359 845.824> 1436 182<359 845.405>
VStem: 151 208<0 718 900 1436> 943 208<993.74 1341.87>
LayerCount: 2
Fore
SplineSet
651 1618 m 2,0,1
 1151 1618 1151 1618 1151 1168 c 0,2,3
 1151 719 1151 719 651 718 c 2,4,-1
 359 718 l 1,5,-1
 359 0 l 1,6,-1
 151 0 l 1,7,-1
 151 1618 l 1,8,-1
 651 1618 l 2,0,1
359 900 m 1,9,10
 651 900 l 0,11,12
 943 900 943 900 943 1168 c 0,13,14
 943 1434 943 1434 651 1435 c 0,15,16
 359 1436 l 1,17,-1
 359 900 l 1,9,10
EndSplineSet
Validated: 1
EndChar

StartChar: Q
Encoding: 49 81 49
Width: 1302
VWidth: 1667
GlyphClass: 2
Flags: W
HStem: 0 182<456.176 651 950.103 1151> 1436 182<453.783 848.217>
VStem: 151 208<276.864 1341.14> 651 198<369.916 531> 943 208<436 1341.14>
LayerCount: 2
Back
SplineSet
-492 182 m 1,0,-1
 -492 0 l 1,1,2
 -742 0 -742 0 -867 109 c 1,3,-1
 -992 0 l 1,4,5
 -1492 0 -1492 0 -1492 436 c 2,6,-1
 -1492 1182 l 2,7,8
 -1492 1618 -1492 1618 -992 1618 c 128,-1,9
 -492 1618 -492 1618 -492 1182 c 2,10,-1
 -492 436 l 1,11,-1
 -711 245 l 1,12,13
 -638 182 -638 182 -492 182 c 1,0,-1
-700 436 m 1,14,-1
 -700 1182 l 2,15,16
 -700 1436 -700 1436 -992 1436 c 128,-1,17
 -1284 1436 -1284 1436 -1284 1182 c 2,18,-1
 -1284 436 l 2,19,20
 -1284 182 -1284 182 -992 182 c 1,21,-1
 -949 219 l 1,22,23
 -992 309 -992 309 -992 436 c 1,24,-1
 -784 436 l 1,25,26
 -784 399 -784 399 -778 368 c 1,27,-1
 -700 436 l 1,14,-1
EndSplineSet
Fore
SplineSet
1151 182 m 1,0,-1
 1151 0 l 1,1,2
 901 0 901 0 776 109 c 1,3,-1
 651 0 l 1,4,5
 151 0 151 0 151 436 c 2,6,-1
 151 1182 l 2,7,8
 151 1618 151 1618 651 1618 c 128,-1,9
 1151 1618 1151 1618 1151 1182 c 2,10,-1
 1151 436 l 1,11,-1
 932 245 l 1,12,13
 1005 182 1005 182 1151 182 c 1,0,-1
943 436 m 1,14,-1
 943 1182 l 2,15,16
 943 1436 943 1436 651 1436 c 128,-1,17
 359 1436 359 1436 359 1182 c 2,18,-1
 359 436 l 2,19,20
 359 182 359 182 651 182 c 1,21,-1
 694 219 l 1,22,23
 651 311 651 311 651 531 c 5,24,-1
 849 531 l 5,25,26
 849 429 849 429 865 368 c 1,27,-1
 943 436 l 1,14,-1
EndSplineSet
Validated: 1
EndChar

StartChar: R
Encoding: 50 82 50
Width: 1302
VWidth: 1667
GlyphClass: 2
Flags: W
HStem: 0 21G<151 359 915.5 1151> 718 182<359 610.363> 1436 182<359 845.824>
VStem: 151 208<0 718 900 1436> 943 208<0 286.09 996.223 1342.43>
LayerCount: 2
Back
SplineSet
1107 544 m 29,0,-1
 1437 606 l 1053
  Named: "NOTE:ALL ANGLES ARE FIXED!DON'T EDIT!"
EndSplineSet
Fore
SplineSet
359 718 m 1,0,-1
 359 0 l 1,1,-1
 151 0 l 1,2,-1
 151 1618 l 1,3,-1
 651 1618 l 2,4,5
 1151 1618 1151 1618 1151 1168 c 0,6,7
 1151 829 1151 829 867 745 c 1,8,9
 1133 528 1133 528 1151 0 c 1,10,-1
 943 0 l 1,11,12
 888 718 888 718 366 718 c 2,13,-1
 359 718 l 1,0,-1
359 900 m 1,14,-1
 651 900 l 2,15,16
 943 901 943 901 943 1168 c 0,17,18
 943 1436 943 1436 651 1436 c 2,19,-1
 359 1436 l 1,20,-1
 359 900 l 1,14,-1
EndSplineSet
Validated: 1
EndChar

StartChar: S
Encoding: 51 83 51
Width: 1302
VWidth: 1667
GlyphClass: 2
Flags: W
HStem: 0 182<201 845.482> 1436 182<456.176 1151>
VStem: 151 208<1057.81 1343.8> 943 208<274.446 552.135>
LayerCount: 2
Back
SplineSet
151 0 m 1,0,-1
 1151 1854 l 1049
EndSplineSet
Fore
SplineSet
602 729 m 0,0,1
 151 900 151 900 151 1182 c 0,2,3
 151 1618 151 1618 651 1618 c 2,4,-1
 1151 1618 l 1,5,-1
 1151 1436 l 1,6,-1
 651 1436 l 2,7,8
 359 1436 359 1436 359 1182 c 0,9,10
 359 1009 359 1009 700 889 c 0,11,12
 1151 731 1151 731 1151 436 c 0,13,14
 1150 0 1150 0 651 0 c 2,15,-1
 201 0 l 1,16,-1
 151 182 l 1,17,-1
 651 182 l 1,18,19
 943 183 943 183 943 436 c 0,20,21
 943 600 943 600 602 729 c 0,0,1
EndSplineSet
Validated: 1
EndChar

StartChar: T
Encoding: 52 84 52
Width: 1302
VWidth: 1667
GlyphClass: 2
Flags: W
HStem: 0 21G<547 755> 1436 182<151 547 755 1151>
VStem: 547 208<0 1436>
LayerCount: 2
Fore
SplineSet
1151 1436 m 1,0,-1
 755 1436 l 5,1,-1
 755 0 l 5,2,-1
 547 0 l 1,3,-1
 547 1436 l 1,4,-1
 151 1436 l 1,5,-1
 151 1618 l 1,6,-1
 1151 1618 l 1,7,-1
 1151 1436 l 1,0,-1
EndSplineSet
Validated: 1
EndChar

StartChar: U
Encoding: 53 85 53
Width: 1302
VWidth: 1667
GlyphClass: 2
Flags: W
HStem: 0 182<453.783 848.217> 1598 20G<151 359 943 1151>
VStem: 151 208<276.864 1618> 943 208<276.864 1618>
LayerCount: 2
Fore
SplineSet
1151 1618 m 1,0,-1
 1151 436 l 2,1,2
 1151 0 1151 0 651 0 c 136,-1,3
 151 0 151 0 151 436 c 2,4,-1
 151 1618 l 1,5,-1
 359 1618 l 1,6,-1
 359 436 l 6,7,8
 359 182 359 182 651 182 c 128,-1,9
 943 182 943 182 943 436 c 2,10,-1
 943 1618 l 1,11,-1
 1151 1618 l 1,0,-1
EndSplineSet
Validated: 1
EndChar

StartChar: V
Encoding: 54 86 54
Width: 1302
VWidth: 1667
GlyphClass: 2
Flags: W
HStem: 0 21G<531.302 770.55> 1598 20G<76 324.295 977.705 1214>
LayerCount: 2
Fore
SplineSet
651 364 m 1,0,-1
 983 1618 l 5,1,-1
 1214 1618 l 5,2,-1
 765 0 l 1,3,-1
 537 0 l 1,4,-1
 76 1618 l 1,5,-1
 319 1618 l 1,6,-1
 651 364 l 1,0,-1
EndSplineSet
Validated: 1
EndChar

StartChar: W
Encoding: 55 87 55
Width: 1302
VWidth: 1667
GlyphClass: 2
Flags: W
HStem: 0 21G<80 296.213 1005.79 1222> 1059 20G<518.994 783.006> 1598 20G<80 291 1011 1222>
VStem: 80 208<546 1618> 1014 208<546 1618>
LayerCount: 2
Fore
SplineSet
774 1079 m 5,0,-1
 1014 546 l 5,1,-1
 1011 1618 l 5,2,-1
 1222 1618 l 5,3,-1
 1222 0 l 5,4,-1
 1014 0 l 5,5,-1
 651 884 l 5,6,-1
 288 0 l 5,7,-1
 80 0 l 5,8,-1
 80 1618 l 5,9,-1
 291 1618 l 5,10,-1
 288 546 l 5,11,-1
 528 1079 l 5,12,-1
 774 1079 l 5,0,-1
EndSplineSet
Validated: 1
EndChar

StartChar: X
Encoding: 56 88 56
Width: 1302
VWidth: 1667
GlyphClass: 2
Flags: W
HStem: 0 21G<80 325.233 976.767 1222> 1598 20G<80 325.233 976.767 1222>
LayerCount: 2
Fore
SplineSet
1222 0 m 1,0,-1
 988 0 l 1,1,-1
 651 600 l 1,2,-1
 314 0 l 1,3,-1
 80 0 l 1,4,-1
 534 809 l 1,5,-1
 80 1618 l 1,6,-1
 314 1618 l 1,7,-1
 651 1018 l 1,8,-1
 988 1618 l 1,9,-1
 1222 1618 l 1,10,-1
 768 809 l 1,11,-1
 1222 0 l 1,0,-1
EndSplineSet
Validated: 1
EndChar

StartChar: Y
Encoding: 57 89 57
Width: 1302
VWidth: 1667
GlyphClass: 2
Flags: W
HStem: 0 21G<547 755> 723 177<454.188 547 755 847.812> 1598 20G<151 359 943 1151>
VStem: 151 208<991.663 1618> 547 208<0 729.727> 943 208<992.021 1618>
CounterMasks: 1 1c
LayerCount: 2
Fore
SplineSet
1151 1618 m 1,0,-1
 1151 1155 l 2,1,2
 1151 767 1151 767 755 723 c 1,3,-1
 755 0 l 1,4,-1
 547 0 l 1,5,-1
 547 723 l 1,6,7
 151 766 151 766 151 1155 c 6,8,-1
 151 1618 l 1,9,-1
 359 1618 l 1,10,-1
 359 1155 l 2,11,12
 359 900 359 900 651 900 c 128,-1,13
 943 900 943 900 943 1155 c 2,14,-1
 943 1618 l 1,15,-1
 1151 1618 l 1,0,-1
EndSplineSet
Validated: 1
EndChar

StartChar: Z
Encoding: 58 90 58
Width: 1302
VWidth: 1667
GlyphClass: 2
Flags: W
HStem: 0 182<452 1151> 1436 182<151 829>
LayerCount: 2
Fore
SplineSet
829 1436 m 1,0,-1
 151 1436 l 1,1,-1
 151 1618 l 1,2,-1
 1151 1618 l 1,3,-1
 452 182 l 1,4,-1
 1151 182 l 1,5,-1
 1151 0 l 1,6,-1
 151 0 l 1,7,-1
 829 1436 l 1,0,-1
EndSplineSet
Validated: 1
EndChar

StartChar: bracketleft
Encoding: 59 91 59
Width: 1302
VWidth: 1667
GlyphClass: 2
Flags: W
HStem: -182 182<567 1151> 1436 182<567 1151>
VStem: 359 208<0 1436>
LayerCount: 2
Fore
SplineSet
359 -182 m 1,0,-1
 359 1618 l 1,1,-1
 1151 1618 l 1,2,-1
 1151 1436 l 1,3,-1
 567 1436 l 1,4,-1
 567 0 l 1,5,-1
 1151 0 l 1,6,-1
 1151 -182 l 1,7,-1
 359 -182 l 1,0,-1
EndSplineSet
Validated: 1
EndChar

StartChar: backslash
Encoding: 60 92 60
Width: 1302
VWidth: 1667
GlyphClass: 2
Flags: W
HStem: 0 21G<923.334 1151> 1598 20G<151 388.543>
LayerCount: 2
Fore
SplineSet
1151 0 m 1,0,-1
 933 0 l 1,1,-1
 151 1618 l 1,2,-1
 379 1618 l 1,3,-1
 1151 0 l 1,0,-1
EndSplineSet
Validated: 1
EndChar

StartChar: bracketright
Encoding: 61 93 61
Width: 1302
VWidth: 1667
GlyphClass: 2
Flags: W
HStem: -182 182<151 735> 1436 182<151 735>
VStem: 735 208<0 1436>
LayerCount: 2
Fore
SplineSet
943 -182 m 5,0,-1
 151 -182 l 5,1,-1
 151 0 l 5,2,-1
 735 0 l 5,3,-1
 735 1436 l 1,4,-1
 151 1436 l 1,5,-1
 151 1618 l 1,6,-1
 943 1618 l 1,7,-1
 943 -182 l 5,0,-1
EndSplineSet
Validated: 1
EndChar

StartChar: asciicircum
Encoding: 62 94 62
Width: 1302
VWidth: 1667
GlyphClass: 2
Flags: W
HStem: 1079 539
LayerCount: 2
Fore
SplineSet
151 1079 m 1,0,-1
 547 1618 l 5,1,-1
 755 1618 l 1,2,-1
 1151 1079 l 1,3,-1
 923 1079 l 1,4,-1
 651 1462 l 1,5,-1
 379 1079 l 1,6,-1
 151 1079 l 1,0,-1
EndSplineSet
Validated: 1
EndChar

StartChar: underscore
Encoding: 63 95 63
Width: 1302
VWidth: 1667
GlyphClass: 2
Flags: W
HStem: 0 208<151 1151>
LayerCount: 2
Fore
SplineSet
151 0 m 5,0,-1
 151 208 l 5,1,-1
 1151 208 l 5,2,-1
 1151 0 l 5,3,-1
 151 0 l 5,0,-1
EndSplineSet
Validated: 1
EndChar

StartChar: grave
Encoding: 64 96 64
Width: 1302
VWidth: 1667
GlyphClass: 2
Flags: W
HStem: 1079 539
VStem: 359 584
LayerCount: 2
Fore
SplineSet
943 1079 m 1,0,-1
 359 1618 l 1,1,-1
 687 1618 l 1,2,-1
 943 1347 l 1,3,-1
 943 1079 l 1,0,-1
EndSplineSet
Validated: 1
EndChar

StartChar: a
Encoding: 65 97 65
Width: 1302
VWidth: 1667
GlyphClass: 2
Flags: W
HStem: 0 182<423.16 943> 536 182<423.16 943> 897 182<429 856.926>
VStem: 151 208<244.956 472.358> 943 208<182 536>
LayerCount: 2
Fore
SplineSet
651 718 m 2,0,-1
 943 718 l 1,1,2
 899 897 899 897 651 897 c 2,3,-1
 349 897 l 29,4,-1
 429 1079 l 25,5,-1
 651 1079 l 2,6,7
 1151 1079 1151 1079 1151 707 c 2,8,-1
 1151 0 l 1,9,-1
 653 0 l 2,10,11
 151 0 151 0 151 358 c 0,12,13
 152 718 152 718 651 718 c 2,0,-1
359 359 m 128,-1,15
 359 182 359 182 651 182 c 2,16,-1
 943 182 l 1,17,-1
 943 536 l 1,18,-1
 651 536 l 2,19,14
 359 536 359 536 359 359 c 128,-1,15
EndSplineSet
Validated: 1
EndChar

StartChar: b
Encoding: 66 98 66
Width: 1302
VWidth: 1667
GlyphClass: 2
Flags: W
HStem: 0 182<359 845.824> 897 182<359 845.824> 1598 20G<151 359>
VStem: 151 208<182 897 1079 1618> 943 208<276.864 801.501>
LayerCount: 2
Fore
SplineSet
651 0 m 2,0,-1
 151 0 l 1,1,-1
 151 1618 l 1,2,-1
 359 1618 l 1,3,-1
 359 1079 l 1,4,-1
 651 1079 l 2,5,6
 1151 1079 1151 1079 1151 642 c 2,7,-1
 1151 436 l 2,8,9
 1151 0 1151 0 651 0 c 2,0,-1
359 897 m 1,10,-1
 359 182 l 1,11,12
 651 182 l 0,13,14
 943 182 943 182 943 436 c 2,15,-1
 943 642 l 2,16,17
 943 897 943 897 651 897 c 2,18,19
 359 897 l 1,10,-1
EndSplineSet
Validated: 1
EndChar

StartChar: c
Encoding: 67 99 67
Width: 1302
VWidth: 1667
GlyphClass: 2
Flags: W
HStem: 0 182<456.176 1151> 897 182<456.176 1151>
VStem: 151 208<276.864 801.177>
LayerCount: 2
Fore
SplineSet
151 436 m 2,0,-1
 151 642 l 2,1,2
 151 1078 151 1078 651 1079 c 2,3,-1
 1151 1079 l 1,4,-1
 1151 897 l 1,5,-1
 651 897 l 1,6,7
 359 896 359 896 359 642 c 2,8,-1
 359 436 l 2,9,10
 359 182 359 182 651 182 c 2,11,-1
 1151 182 l 1,12,-1
 1151 0 l 1,13,-1
 651 0 l 2,14,15
 151 0 151 0 151 436 c 2,0,-1
EndSplineSet
Validated: 1
EndChar

StartChar: d
Encoding: 68 100 68
Width: 1302
VWidth: 1667
GlyphClass: 2
Flags: W
HStem: 0 182<456.176 943> 897 182<456.176 943> 1598 20G<943 1151>
VStem: 151 208<276.864 801.177> 943 208<182 897 1079 1618>
LayerCount: 2
Fore
SplineSet
651 0 m 2,0,1
 151 0 151 0 151 436 c 2,2,-1
 151 642 l 2,3,4
 151 1078 151 1078 651 1079 c 2,5,6
 943 1079 l 1,7,-1
 943 1618 l 1,8,-1
 1151 1618 l 1,9,-1
 1151 0 l 1,10,-1
 651 0 l 2,0,1
  Spiro
    651 0 ]
    276 109 o
    151 436 [
    151 642 ]
    276 969.25 o
    651 1079 [
    943 1079 v
    943 1618 v
    1151 1618 v
    1151 0 v
    0 0 z
  EndSpiro
943 897 m 1,11,-1
 651 897 l 2,12,13
 359 897 359 897 359 642 c 2,14,-1
 359 436 l 2,15,16
 359 182 359 182 651 182 c 0,17,-1
 943 182 l 1,18,-1
 943 897 l 1,11,-1
  Spiro
    943 897 v
    651 897 ]
    432 833.25 o
    359 642 [
    359 436 ]
    432 245.5 o
    651 182 ]
    943 182 v
    0 0 z
  EndSpiro
EndSplineSet
Validated: 1
EndChar

StartChar: e
Encoding: 69 101 69
Width: 1302
VWidth: 1667
GlyphClass: 2
Flags: W
HStem: 0 182<456.176 958> 449 181<359 943> 898 182<453.783 848.217>
VStem: 151 208<276.864 449 630 801.866> 943 208<630 801.866>
LayerCount: 2
Fore
SplineSet
1086 182 m 1,0,-1
 958 0 l 1,1,2
 651 0 l 2,3,4
 151 0 151 0 151 436 c 2,5,-1
 151 642 l 2,6,7
 151 1080 151 1080 651 1080 c 128,-1,8
 1151 1080 1151 1080 1151 642 c 2,9,-1
 1151 449 l 1,10,-1
 359 449 l 1,11,-1
 359 436 l 2,12,13
 359 182 359 182 651 182 c 0,14,15
 868 182 868 182 1086 182 c 1,0,-1
359 630 m 1,16,-1
 943 630 l 1,17,-1
 943 642 l 2,18,19
 943 898 943 898 651 898 c 128,-1,20
 359 898 359 898 359 642 c 2,21,-1
 359 630 l 1,16,-1
EndSplineSet
Validated: 1
EndChar

StartChar: f
Encoding: 70 102 70
Width: 1302
VWidth: 1667
GlyphClass: 2
Flags: W
HStem: 0 21G<547 755> 897 182<151 547 755 1151> 1436 182<886.75 1151>
VStem: 547 208<0 897 1079 1330.17>
LayerCount: 2
Back
SplineSet
1189.08007812 1054.71972656 m 1,0,-1
 2137.13378906 1054.71972656 l 1025,1,-1
  Named: "f/t top-1236"
EndSplineSet
Fore
SplineSet
1151 1618 m 1,0,-1
 1151 1436 l 1,1,2
 755 1436 755 1436 755 1182 c 2,3,-1
 755 1079 l 1,4,-1
 1151 1079 l 1,5,-1
 1151 897 l 1,6,-1
 755 897 l 1,7,-1
 755 0 l 1,8,-1
 547 0 l 1,9,-1
 547 897 l 1,10,-1
 151 897 l 1,11,-1
 151 1079 l 1,12,-1
 547 1079 l 1,13,-1
 547 1182 l 2,14,15
 547 1618 547 1618 1151 1618 c 1,0,-1
EndSplineSet
Validated: 1
EndChar

StartChar: g
Encoding: 71 103 71
Width: 1302
VWidth: 1667
GlyphClass: 2
Flags: W
HStem: -539 181<339 845.824> 0 182<456.176 943> 897 182<456.176 943>
VStem: 151 208<276.864 801.501> 943 208<-262.136 0 182 897>
LayerCount: 2
Fore
SplineSet
651 -539 m 2,0,-1
 339 -539 l 1,1,-1
 279 -358 l 5,2,-1
 651 -358 l 2,3,4
 943 -358 943 -358 943 -103 c 2,5,-1
 943 0 l 1,6,-1
 651 0 l 2,7,8
 151 0 151 0 151 436 c 2,9,-1
 151 642 l 2,10,11
 151 1079 151 1079 651 1079 c 2,12,-1
 1151 1079 l 1,13,-1
 1151 -103 l 2,14,15
 1151 -539 1151 -539 651 -539 c 2,0,-1
943 182 m 1,16,-1
 943 897 l 1,17,18
 651 897 l 0,19,20
 359 897 359 897 359 642 c 2,21,-1
 359 436 l 2,22,23
 359 182 359 182 651 182 c 2,24,-1
 943 182 l 1,16,-1
EndSplineSet
Validated: 1
EndChar

StartChar: h
Encoding: 72 104 72
Width: 1302
VWidth: 1667
GlyphClass: 2
Flags: W
HStem: 0 21G<151 359 943 1151> 897 182<359 845.824> 1598 20G<151 359>
VStem: 151 208<0 897 1079 1618> 943 208<0 801.501>
LayerCount: 2
Fore
SplineSet
651 897 m 2,0,1
 359 897 l 1,2,-1
 359 0 l 1,3,-1
 151 0 l 1,4,-1
 151 1618 l 1,5,-1
 359 1618 l 1,6,-1
 359 1079 l 1,7,8
 505 1079 505 1079 651 1079 c 0,9,10
 1151 1079 1151 1079 1151 642 c 2,11,-1
 1151 0 l 1,12,-1
 943 0 l 1,13,-1
 943 642 l 2,14,15
 943 897 943 897 651 897 c 2,0,1
EndSplineSet
Validated: 1
EndChar

StartChar: i
Encoding: 73 105 73
Width: 1302
VWidth: 1667
GlyphClass: 2
Flags: W
HStem: 0 182<765.969 1151> 897 182<151 547> 1306 312<524.859 777.141>
VStem: 495 312<1335.86 1588.14> 547 208<188.805 897>
LayerCount: 2
Fore
SplineSet
807 1462 m 128,-1,1
 807 1306 807 1306 651 1306 c 128,-1,2
 495 1306 495 1306 495 1462 c 128,-1,3
 495 1618 495 1618 651 1618 c 128,-1,0
 807 1618 807 1618 807 1462 c 128,-1,1
547 286 m 6,4,-1
 547 897 l 1,5,-1
 151 897 l 1,6,-1
 151 1079 l 1,7,-1
 755 1079 l 1,8,-1
 755 286 l 6,9,10
 755 182 755 182 833 182 c 0,11,12
 1151 182 l 1,13,-1
 1151 0 l 1,14,-1
 833 0 l 0,15,16
 547 0 547 0 547 286 c 6,4,-1
EndSplineSet
Validated: 1
EndChar

StartChar: j
Encoding: 74 106 74
Width: 1302
VWidth: 1667
GlyphClass: 2
Flags: W
HStem: -539 181<151 637.824> 897 182<359 735> 1306 312<712.859 965.141>
VStem: 683 312<1335.86 1588.14> 735 208<-262.136 897>
LayerCount: 2
Fore
SplineSet
995 1462 m 128,-1,1
 995 1306 995 1306 839 1306 c 128,-1,2
 683 1306 683 1306 683 1462 c 128,-1,3
 683 1618 683 1618 839 1618 c 128,-1,0
 995 1618 995 1618 995 1462 c 128,-1,1
943 -103 m 2,4,5
 943 -539 943 -539 443 -539 c 2,6,-1
 151 -539 l 1,7,-1
 151 -358 l 1,8,-1
 443 -358 l 2,9,10
 735 -358 735 -358 735 -103 c 2,11,-1
 735 897 l 1,12,-1
 359 897 l 1,13,-1
 359 1079 l 1,14,-1
 943 1079 l 1,15,-1
 943 -103 l 2,4,5
EndSplineSet
Validated: 1
EndChar

StartChar: k
Encoding: 75 107 75
Width: 1302
VWidth: 1667
GlyphClass: 2
Flags: W
HStem: 0 21G<151 359 812.521 1149> 1059 20G<813.468 1151> 1598 20G<151 360>
VStem: 151 208<0 376 703 1618>
LayerCount: 2
Fore
SplineSet
359 0 m 1,0,-1
 151 0 l 1,1,-1
 151 1618 l 5,2,-1
 360 1618 l 1,3,-1
 359 703 l 1,4,-1
 839 1079 l 1,5,-1
 1151 1079 l 1,6,-1
 462 539 l 1,7,-1
 1149 0 l 1,8,-1
 838 0 l 1,9,-1
 359 376 l 1,10,-1
 359 0 l 1,0,-1
EndSplineSet
Validated: 1
EndChar

StartChar: l
Encoding: 76 108 76
Width: 1302
VWidth: 1667
GlyphClass: 2
Flags: W
HStem: 0 182<765.969 1151> 1436 182<151 547>
VStem: 547 208<188.805 1436>
LayerCount: 2
Fore
SplineSet
755 286 m 1,0,1
 755 182 755 182 833 182 c 0,2,-1
 1151 182 l 5,3,-1
 1151 0 l 1,4,-1
 833 0 l 0,5,6
 547 0 547 0 547 286 c 2,7,-1
 547 1436 l 1,8,-1
 151 1436 l 1,9,-1
 151 1618 l 1,10,-1
 755 1618 l 1,11,-1
 755 286 l 1,0,1
EndSplineSet
Validated: 1
EndChar

StartChar: m
Encoding: 77 109 77
Width: 1302
VWidth: 1667
GlyphClass: 2
Flags: W
HStem: 0 21G<92 300 547 755 1002 1210> 897 182<300 547 755 904.824>
VStem: 92 208<0 897> 547 208<0 895> 1002 208<0 801.501>
CounterMasks: 1 38
LayerCount: 2
Fore
SplineSet
92 1079 m 1,0,-1
 710 1079 l 6,1,2
 1210 1079 1210 1079 1210 642 c 2,3,-1
 1210 0 l 1,4,-1
 1002 0 l 1,5,-1
 1002 642 l 2,6,7
 1002 877 1002 877 755 895 c 1,8,-1
 755 0 l 1,9,-1
 547 0 l 1,10,-1
 547 897 l 1,11,12
 300 897 l 1,13,-1
 300 0 l 1,14,-1
 92 0 l 1,15,-1
 92 1079 l 1,0,-1
EndSplineSet
Validated: 1
EndChar

StartChar: n
Encoding: 78 110 78
Width: 1302
VWidth: 1667
GlyphClass: 2
Flags: W
HStem: 0 21G<151 359 943 1151> 897 182<359 845.824>
VStem: 151 208<0 897> 943 208<0 807.103>
LayerCount: 2
Fore
SplineSet
651 897 m 2,0,1
 359 897 l 1,2,-1
 359 0 l 1,3,-1
 151 0 l 1,4,-1
 151 1079 l 1,5,-1
 651 1079 l 1,6,7
 1151 1074 1151 1074 1151 642 c 2,8,-1
 1151 0 l 1,9,-1
 943 0 l 1,10,-1
 943 642 l 2,11,12
 943 897 943 897 651 897 c 2,0,1
EndSplineSet
Validated: 1
EndChar

StartChar: o
Encoding: 79 111 79
Width: 1302
VWidth: 1667
GlyphClass: 2
Flags: W
HStem: 0 182<453.783 848.217> 897 181<453.783 848.217>
VStem: 151 208<276.864 801.136> 943 208<276.864 801.136>
LayerCount: 2
Back
SplineSet
651 618 m 25,0,-1
 342 1236 l 1049
651 618 m 25,2,-1
 151 854 l 1049
651 618 m 25,4,-1
 460 1236 l 1049
150 1236 m 1,0,-1
 651 618 l 1025,1,-1
NamedP: "center"
EndSplineSet
Fore
SplineSet
359 642 m 6,0,-1
 359 436 l 6,1,2
 359 182 359 182 651 182 c 132,-1,3
 943 182 943 182 943 436 c 6,4,-1
 943 642 l 6,5,6
 943 897 943 897 651 897 c 132,-1,7
 359 897 359 897 359 642 c 6,0,-1
1151 642 m 6,8,-1
 1151 436 l 6,9,10
 1151 0 1151 0 651 0 c 140,-1,11
 151 0 151 0 151 436 c 6,12,-1
 151 642 l 6,13,14
 151 1078 151 1078 651 1078 c 148,-1,15
 1151 1078 1151 1078 1151 642 c 6,8,-1
EndSplineSet
Validated: 1
EndChar

StartChar: p
Encoding: 80 112 80
Width: 1302
VWidth: 1667
GlyphClass: 2
Flags: W
HStem: -539 21G<151 359> 0 182<359 845.824> 897 182<359 845.824>
VStem: 151 208<-539 0 182 897> 943 208<276.864 801.501>
LayerCount: 2
Fore
SplineSet
651 1079 m 6,0,1
 1151 1079 1151 1079 1151 642 c 6,2,-1
 1151 436 l 6,3,4
 1151 0 1151 0 651 0 c 6,5,6
 359 0 l 5,7,-1
 359 -539 l 5,8,-1
 151 -539 l 5,9,-1
 151 1079 l 5,10,-1
 651 1079 l 6,0,1
359 182 m 5,11,-1
 651 182 l 6,12,13
 943 182 943 182 943 436 c 6,14,-1
 943 642 l 6,15,16
 943 897 943 897 651 897 c 4,17,-1
 359 897 l 5,18,-1
 359 182 l 5,11,-1
EndSplineSet
Validated: 1
EndChar

StartChar: q
Encoding: 81 113 81
Width: 1302
VWidth: 1667
GlyphClass: 2
Flags: W
HStem: -539 21G<943 1151> 0 182<456.176 943> 897 182<456.176 943>
VStem: 151 208<276.864 801.501> 943 208<-539 0 182 897>
LayerCount: 2
Fore
SplineSet
651 1079 m 2,0,1
 1151 1079 l 1,2,-1
 1151 -539 l 1,3,-1
 943 -539 l 1,4,-1
 943 0 l 1,5,-1
 651 0 l 2,6,7
 151 0 151 0 151 436 c 2,8,-1
 151 642 l 2,9,10
 151 1079 151 1079 651 1079 c 2,0,1
943 182 m 1,11,-1
 943 897 l 1,12,-1
 651 897 l 0,13,14
 359 897 359 897 359 642 c 2,15,16
 359 436 l 2,17,18
 359 182 359 182 651 182 c 2,19,-1
 943 182 l 1,11,-1
EndSplineSet
Validated: 1
EndChar

StartChar: r
Encoding: 82 114 82
Width: 1302
VWidth: 1488
GlyphClass: 2
Flags: W
HStem: 0 21G<151 359> 873 206<740.29 1151>
VStem: 151 208<0 513.282 820 1079>
LayerCount: 2
Fore
SplineSet
359 820 m 1,0,1
 607 1078 607 1078 1151 1079 c 1,2,-1
 1151 871 l 1,3,4
 1108 873 1108 873 1066 873 c 0,5,6
 359 873 359 873 359 206 c 2,7,-1
 359 0 l 1,8,-1
 151 0 l 1,9,-1
 151 1079 l 1,10,-1
 359 1079 l 1,11,-1
 359 820 l 1,0,1
EndSplineSet
Validated: 1
EndChar

StartChar: s
Encoding: 83 115 83
Width: 1302
VWidth: 1667
GlyphClass: 2
Flags: W
HStem: 0 182<271 924.75> 897 182<377.25 1151>
VStem: 151 208<723.732 865.405> 943 208<213.595 354.252>
LayerCount: 2
Back
SplineSet
151 0 m 29,0,-1
 1151 1236 l 1049
EndSplineSet
Fore
SplineSet
581 463 m 0,0,1
 151 548 151 548 151 809 c 0,2,3
 151 1079 151 1079 651 1079 c 2,4,5
 1151 1079 l 1,6,-1
 1151 897 l 1,7,8
 651 897 l 0,9,10
 359 897 359 897 359 809 c 0,11,12
 359 684 359 684 721 614 c 0,13,14
 1151 530 1151 530 1151 270 c 0,15,16
 1151 0 1151 0 651 0 c 2,17,18
 271 0 l 5,19,-1
 211 182 l 5,20,21
 651 182 l 0,22,23
 943 182 943 182 943 270 c 0,24,25
 943 392 943 392 581 463 c 0,0,1
EndSplineSet
Validated: 1
EndChar

StartChar: t
Encoding: 84 116 84
Width: 1302
VWidth: 1667
GlyphClass: 2
Flags: W
HStem: 0 182<886.75 1151> 897 182<151 547 755 1151>
VStem: 547 208<287.828 897 1079 1436>
LayerCount: 2
Fore
SplineSet
547 436 m 2,0,-1
 547 897 l 1,1,-1
 151 897 l 1,2,-1
 151 1079 l 1,3,-1
 547 1079 l 1,4,-1
 547 1436 l 1,5,-1
 755 1436 l 1,6,-1
 755 1079 l 1,7,-1
 1151 1079 l 1,8,-1
 1151 897 l 1,9,-1
 755 897 l 1,10,-1
 755 436 l 6,11,12
 755 182 755 182 1151 182 c 1,13,-1
 1151 0 l 1,14,15
 547 0 547 0 547 436 c 2,0,-1
EndSplineSet
Validated: 1
EndChar

StartChar: u
Encoding: 85 117 85
Width: 1302
VWidth: 1667
GlyphClass: 2
Flags: W
HStem: 0 182<456.176 943> 1059 20G<151 359 943 1151>
VStem: 151 208<276.864 1079> 943 208<182 1079>
LayerCount: 2
Fore
SplineSet
651 182 m 2,0,1
 943 182 l 1,2,-1
 943 1079 l 1,3,-1
 1151 1079 l 1,4,-1
 1151 0 l 1,5,-1
 651 0 l 1,6,7
 151 0 151 0 151 436 c 2,8,-1
 151 1079 l 1,9,-1
 359 1079 l 1,10,-1
 359 436 l 2,11,12
 359 182 359 182 651 182 c 2,0,1
EndSplineSet
Validated: 1
EndChar

StartChar: v
Encoding: 86 118 86
Width: 1302
VWidth: 1667
GlyphClass: 2
Flags: W
HStem: 0 21G<540.641 763.322> 1059 20G<151 366.565 935.435 1151>
LayerCount: 2
Fore
SplineSet
151 1079 m 1,0,-1
 359 1079 l 1,1,-1
 651 307 l 5,2,-1
 943 1079 l 1,3,-1
 1151 1079 l 1,4,-1
 756 0 l 1,5,-1
 548 0 l 1,6,-1
 151 1079 l 1,0,-1
EndSplineSet
Validated: 1
EndChar

StartChar: w
Encoding: 87 119 87
Width: 1302
VWidth: 1667
GlyphClass: 2
Flags: W
HStem: 0 239<280 357.207 944.793 1022> 1060 20G<72 280 1022 1230>
VStem: 72 208<239 1080> 1022 206<237 1079>
LayerCount: 2
Fore
SplineSet
651 310 m 1,0,1
 475 0 475 0 72 0 c 1,2,3
 72 1080 l 1,4,-1
 280 1080 l 1,5,-1
 280 239 l 1,6,7
 480 239 480 239 582 641 c 1,8,-1
 720 640 l 1,9,10
 822 238 822 238 1022 237 c 1,11,12
 1022 1079 l 1,13,-1
 1230 1079 l 1,14,15
 1228 0 l 17,16,17
 829 0 829 0 651 310 c 1,0,1
EndSplineSet
Validated: 1
EndChar

StartChar: x
Encoding: 88 120 88
Width: 1302
VWidth: 1667
GlyphClass: 2
Flags: W
HStem: 0 21G<151 392.985 909.015 1151> 1059 20G<151 392.077 909.923 1151>
LayerCount: 2
Fore
SplineSet
379 0 m 1,0,-1
 151 0 l 1,1,-1
 546 539 l 1,2,-1
 151 1079 l 5,3,-1
 379 1079 l 1,4,-1
 651 663 l 1,5,-1
 923 1079 l 1,6,-1
 1151 1079 l 1,7,-1
 756 539 l 1,8,-1
 1151 0 l 1,9,-1
 923 0 l 1,10,-1
 651 389 l 1,11,-1
 379 0 l 1,0,-1
EndSplineSet
Validated: 1
EndChar

StartChar: y
Encoding: 89 121 89
Width: 1302
VWidth: 1667
GlyphClass: 2
Flags: W
HStem: -539 181<359 845.824> 0 182<456.176 943> 1059 20G<151 359 943 1151>
VStem: 151 208<276.864 1079> 943 208<-262.136 0 182 1079>
LayerCount: 2
Back
SplineSet
719.693359375 938.666992188 m 25,0,-1
 719.693359375 -768 l 1049,1,-1
EndSplineSet
Fore
SplineSet
359 1079 m 25,0,-1
 359 436 l 18,1,2
 359 182 359 182 651 182 c 10,3,-1
 943 182 l 1,4,-1
 943 1079 l 1,5,-1
 1151 1079 l 1,6,-1
 1151 -103 l 18,7,8
 1151 -539 1151 -539 651 -539 c 10,9,-1
 359 -539 l 1,10,-1
 309 -358 l 5,11,-1
 651 -358 l 18,12,13
 943 -358 943 -358 943 -103 c 10,14,-1
 943 0 l 1,15,-1
 651 0 l 18,16,17
 151 0 151 0 151 436 c 10,18,-1
 151 1079 l 25,19,20
 359 1079 l 25,0,-1
EndSplineSet
Validated: 1
EndChar

StartChar: z
Encoding: 90 122 90
Width: 1302
VWidth: 1667
GlyphClass: 2
Flags: W
HStem: 0 182<506 1151> 897 182<151 775>
LayerCount: 2
Fore
SplineSet
775 897 m 1,0,-1
 151 897 l 1,1,-1
 151 1079 l 1,2,-1
 1151 1079 l 1,3,-1
 506 182 l 5,4,-1
 1151 182 l 1,5,-1
 1151 0 l 1,6,-1
 151 0 l 1,7,-1
 775 897 l 1,0,-1
EndSplineSet
Validated: 1
EndChar

StartChar: braceleft
Encoding: 91 123 91
Width: 1302
VWidth: 1667
GlyphClass: 2
Flags: W
HStem: -358 182<852.786 1151> 539 182<151 454.609> 1436 182<852.786 1151>
VStem: 547 208<-80.5007 449.103 810.897 1341.14>
CounterMasks: 1 e0
LayerCount: 2
Fore
SplineSet
1151 -358 m 1,0,-1
 1048 -358 l 2,1,2
 547 -358 547 -358 547 79 c 2,3,-1
 547 284 l 2,4,5
 547 539 547 539 255 539 c 2,6,-1
 151 539 l 1,7,-1
 151 721 l 1,8,-1
 255 721 l 2,9,10
 547 721 547 721 547 976 c 2,11,-1
 547 1182 l 2,12,13
 547 1618 547 1618 1048 1618 c 2,14,-1
 1151 1618 l 1,15,-1
 1151 1436 l 1,16,-1
 1048 1436 l 2,17,18
 755 1436 755 1436 755 1182 c 2,19,-1
 755 976 l 2,20,21
 755 740 755 740 607 630 c 1,22,23
 755 520 755 520 755 284 c 2,24,-1
 755 79 l 2,25,26
 755 -176 755 -176 1048 -176 c 2,27,-1
 1151 -176 l 1,28,-1
 1151 -358 l 1,0,-1
EndSplineSet
Validated: 1
EndChar

StartChar: bar
Encoding: 92 124 92
Width: 1302
VWidth: 1667
GlyphClass: 2
Flags: W
HStem: 1598 20G<547 755>
VStem: 547 208<-182 1617>
LayerCount: 2
Fore
SplineSet
547 -182 m 1,0,-1
 547 1617 l 1,1,-1
 755 1618 l 1,2,-1
 755 -182 l 1,3,-1
 547 -182 l 1,0,-1
EndSplineSet
Validated: 1
EndChar

StartChar: braceright
Encoding: 93 125 93
Width: 1302
VWidth: 1667
GlyphClass: 2
Flags: W
HStem: -358 182<151 449.214> 539 182<847.391 1151> 1436 182<151 449.214>
VStem: 547 208<-80.177 448.62 810.897 1341.14>
CounterMasks: 1 e0
LayerCount: 2
Fore
SplineSet
151 -358 m 1,0,-1
 151 -176 l 1,1,-1
 254 -176 l 2,2,3
 547 -176 547 -176 547 79 c 2,4,-1
 547 284 l 2,5,6
 547 520 547 520 695 630 c 1,7,8
 547 740 547 740 547 976 c 2,9,-1
 547 1182 l 2,10,11
 547 1436 547 1436 254 1436 c 2,12,-1
 151 1436 l 1,13,-1
 151 1618 l 1,14,-1
 254 1618 l 2,15,16
 755 1618 755 1618 755 1182 c 2,17,-1
 755 976 l 2,18,19
 755 721 755 721 1047 721 c 2,20,-1
 1151 721 l 1,21,-1
 1151 539 l 1,22,-1
 1047 539 l 2,23,24
 755 538 755 538 755 284 c 2,25,-1
 755 79 l 2,26,27
 755 -357 755 -357 254 -358 c 2,28,-1
 151 -358 l 1,0,-1
EndSplineSet
Validated: 1
EndChar

StartChar: asciitilde
Encoding: 94 126 94
Width: 1302
VWidth: 1911
GlyphClass: 2
Flags: W
HStem: 446 208<810.178 959.672> 936 208<289.328 436.083>
VStem: 61 208<582 921.527> 980 208<668.473 1008>
LayerCount: 2
Back
SplineSet
359 1144 m 1,0,-1
 943 474 l 1025
61 1144 m 1,2,-1
 1241 474 l 1025
61 474 m 1,4,-1
 1241 1144 l 1025
61 474 m 1,6,-1
 61 1144 l 1,7,-1
 1241 1144 l 1,8,-1
 1241 474 l 1,9,-1
 61 474 l 1,6,-1
EndSplineSet
Fore
SplineSet
712 845 m 24,0,1
 817 654 817 654 898 654 c 0,2,3
 980 654 980 654 980 848 c 2,4,-1
 980 1028 l 1,5,-1
 1188 1008 l 1,6,-1
 1188 783 l 2,7,8
 1188 446 1188 446 890 446 c 0,9,10
 712 446 712 446 537 745 c 24,11,12
 425 936 425 936 351 936 c 0,13,14
 269 936 269 936 269 742 c 2,15,-1
 269 562 l 1,16,-1
 61 582 l 1,17,-1
 61 807 l 2,18,19
 61 1144 61 1144 359 1144 c 0,20,21
 548 1144 548 1144 712 845 c 24,0,1
EndSplineSet
Validated: 1
EndChar
